<?xml version="1.0" encoding="UTF-8" standalone="no"?>
<svg
   xmlns:dc="http://purl.org/dc/elements/1.1/"
   xmlns:cc="http://creativecommons.org/ns#"
   xmlns:rdf="http://www.w3.org/1999/02/22-rdf-syntax-ns#"
   xmlns:svg="http://www.w3.org/2000/svg"
   xmlns="http://www.w3.org/2000/svg"
   xmlns:xlink="http://www.w3.org/1999/xlink"
   xmlns:sodipodi="http://sodipodi.sourceforge.net/DTD/sodipodi-0.dtd"
   xmlns:inkscape="http://www.inkscape.org/namespaces/inkscape"
   height="345.6pt"
   version="1.1"
   viewBox="0 0 460.8 345.6"
   width="460.8pt"
   id="svg1573"
   sodipodi:docname="evalnumWolvesWithrewardSensitivityToDistance_meanKill_surface.svg"
   inkscape:version="1.0.2 (e86c8708, 2021-01-15)"
   inkscape:export-filename="/Users/zhaominglu/PycharmProjects/Deep-Reinforcement-Learning-with-Tensorflow/maddpg/evalResults/evalnumWolvesWithrewardSensitivityToDistance_meanKill_surface.png"
   inkscape:export-xdpi="600"
   inkscape:export-ydpi="600">
  <sodipodi:namedview
     pagecolor="#ffffff"
     bordercolor="#666666"
     borderopacity="1"
     objecttolerance="10"
     gridtolerance="10"
     guidetolerance="10"
     inkscape:pageopacity="0"
     inkscape:pageshadow="2"
     inkscape:window-width="2560"
     inkscape:window-height="1414"
     id="namedview1575"
     showgrid="false"
     inkscape:zoom="2.4769617"
     inkscape:cx="271.31609"
     inkscape:cy="245.307"
     inkscape:window-x="1024"
     inkscape:window-y="26"
     inkscape:window-maximized="0"
     inkscape:current-layer="layer2" />
  <metadata
     id="metadata974">
    <rdf:RDF>
      <cc:Work>
        <dc:type
           rdf:resource="http://purl.org/dc/dcmitype/StillImage" />
        <dc:date>2021-01-30T12:41:56.622765</dc:date>
        <dc:format>image/svg+xml</dc:format>
        <dc:creator>
          <cc:Agent>
            <dc:title>Matplotlib v3.3.2, https://matplotlib.org/</dc:title>
          </cc:Agent>
        </dc:creator>
      </cc:Work>
    </rdf:RDF>
  </metadata>
  <defs
     id="defs978">
    <style
       type="text/css"
       id="style976">*{stroke-linecap:butt;stroke-linejoin:round;}</style>
    <marker
       style="overflow:visible"
       id="Arrow1Lstart"
       refX="0"
       refY="0"
       orient="auto"
       inkscape:stockid="Arrow1Lstart"
       inkscape:isstock="true">
      <path
         transform="matrix(0.8,0,0,0.8,10,0)"
         style="fill:#000000;fill-opacity:1;fill-rule:evenodd;stroke:#000000;stroke-width:1pt;stroke-opacity:1"
         d="M 0,0 5,-5 -12.5,0 5,5 Z"
         id="path1466" />
    </marker>
    <marker
       style="overflow:visible"
       id="Arrow2Lend"
       refX="0"
       refY="0"
       orient="auto"
       inkscape:stockid="Arrow2Lend"
       inkscape:isstock="true">
      <path
         transform="matrix(-1.1,0,0,-1.1,-1.1,0)"
         d="M 8.7185878,4.0337352 -2.2072895,0.01601326 8.7185884,-4.0017078 c -1.7454984,2.3720609 -1.7354408,5.6174519 -6e-7,8.035443 z"
         style="fill:#000000;fill-opacity:1;fill-rule:evenodd;stroke:#000000;stroke-width:0.625;stroke-linejoin:round;stroke-opacity:1"
         id="path1487" />
    </marker>
    <clipPath
       id="pee435649c9">
      <rect
         height="266.112"
         width="266.112"
         x="103.104"
         y="41.472"
         id="rect580" />
    </clipPath>
    <clipPath
       id="clipPath1593">
      <rect
         height="266.112"
         width="266.112"
         x="103.104"
         y="41.472"
         id="rect1591" />
    </clipPath>
    <clipPath
       id="clipPath1597">
      <rect
         height="266.112"
         width="266.112"
         x="103.104"
         y="41.472"
         id="rect1595" />
    </clipPath>
    <clipPath
       id="clipPath1601">
      <rect
         height="266.112"
         width="266.112"
         x="103.104"
         y="41.472"
         id="rect1599" />
    </clipPath>
    <clipPath
       id="clipPath1605">
      <rect
         height="266.112"
         width="266.112"
         x="103.104"
         y="41.472"
         id="rect1603" />
    </clipPath>
    <clipPath
       id="clipPath1609">
      <rect
         height="266.112"
         width="266.112"
         x="103.104"
         y="41.472"
         id="rect1607" />
    </clipPath>
    <clipPath
       id="clipPath1613">
      <rect
         height="266.112"
         width="266.112"
         x="103.104"
         y="41.472"
         id="rect1611" />
    </clipPath>
    <clipPath
       id="clipPath1617">
      <rect
         height="266.112"
         width="266.112"
         x="103.104"
         y="41.472"
         id="rect1615" />
    </clipPath>
    <clipPath
       id="clipPath1621">
      <rect
         height="266.112"
         width="266.112"
         x="103.104"
         y="41.472"
         id="rect1619" />
    </clipPath>
    <clipPath
       id="clipPath1625">
      <rect
         height="266.112"
         width="266.112"
         x="103.104"
         y="41.472"
         id="rect1623" />
    </clipPath>
    <clipPath
       id="clipPath1629">
      <rect
         height="266.112"
         width="266.112"
         x="103.104"
         y="41.472"
         id="rect1627" />
    </clipPath>
    <clipPath
       id="clipPath1633">
      <rect
         height="266.112"
         width="266.112"
         x="103.104"
         y="41.472"
         id="rect1631" />
    </clipPath>
    <clipPath
       id="clipPath1637">
      <rect
         height="266.112"
         width="266.112"
         x="103.104"
         y="41.472"
         id="rect1635" />
    </clipPath>
    <clipPath
       id="clipPath1641">
      <rect
         height="266.112"
         width="266.112"
         x="103.104"
         y="41.472"
         id="rect1639" />
    </clipPath>
    <clipPath
       id="clipPath1645">
      <rect
         height="266.112"
         width="266.112"
         x="103.104"
         y="41.472"
         id="rect1643" />
    </clipPath>
    <clipPath
       id="clipPath1649">
      <rect
         height="266.112"
         width="266.112"
         x="103.104"
         y="41.472"
         id="rect1647" />
    </clipPath>
    <clipPath
       id="clipPath1653">
      <rect
         height="266.112"
         width="266.112"
         x="103.104"
         y="41.472"
         id="rect1651" />
    </clipPath>
    <clipPath
       id="clipPath1657">
      <rect
         height="266.112"
         width="266.112"
         x="103.104"
         y="41.472"
         id="rect1655" />
    </clipPath>
    <clipPath
       id="clipPath1661">
      <rect
         height="266.112"
         width="266.112"
         x="103.104"
         y="41.472"
         id="rect1659" />
    </clipPath>
    <clipPath
       id="clipPath1665">
      <rect
         height="266.112"
         width="266.112"
         x="103.104"
         y="41.472"
         id="rect1663" />
    </clipPath>
    <clipPath
       id="clipPath1669">
      <rect
         height="266.112"
         width="266.112"
         x="103.104"
         y="41.472"
         id="rect1667" />
    </clipPath>
    <clipPath
       id="clipPath1673">
      <rect
         height="266.112"
         width="266.112"
         x="103.104"
         y="41.472"
         id="rect1671" />
    </clipPath>
    <clipPath
       id="clipPath1677">
      <rect
         height="266.112"
         width="266.112"
         x="103.104"
         y="41.472"
         id="rect1675" />
    </clipPath>
    <clipPath
       id="clipPath1681">
      <rect
         height="266.112"
         width="266.112"
         x="103.104"
         y="41.472"
         id="rect1679" />
    </clipPath>
    <clipPath
       id="clipPath1685">
      <rect
         height="266.112"
         width="266.112"
         x="103.104"
         y="41.472"
         id="rect1683" />
    </clipPath>
    <clipPath
       id="clipPath1689">
      <rect
         height="266.112"
         width="266.112"
         x="103.104"
         y="41.472"
         id="rect1687" />
    </clipPath>
    <clipPath
       id="clipPath1693">
      <rect
         height="266.112"
         width="266.112"
         x="103.104"
         y="41.472"
         id="rect1691" />
    </clipPath>
    <clipPath
       id="clipPath1697">
      <rect
         height="266.112"
         width="266.112"
         x="103.104"
         y="41.472"
         id="rect1695" />
    </clipPath>
    <clipPath
       id="clipPath1701">
      <rect
         height="266.112"
         width="266.112"
         x="103.104"
         y="41.472"
         id="rect1699" />
    </clipPath>
    <clipPath
       id="clipPath1705">
      <rect
         height="266.112"
         width="266.112"
         x="103.104"
         y="41.472"
         id="rect1703" />
    </clipPath>
    <clipPath
       id="clipPath1709">
      <rect
         height="266.112"
         width="266.112"
         x="103.104"
         y="41.472"
         id="rect1707" />
    </clipPath>
    <clipPath
       id="clipPath1713">
      <rect
         height="266.112"
         width="266.112"
         x="103.104"
         y="41.472"
         id="rect1711" />
    </clipPath>
    <clipPath
       id="clipPath1717">
      <rect
         height="266.112"
         width="266.112"
         x="103.104"
         y="41.472"
         id="rect1715" />
    </clipPath>
    <clipPath
       id="clipPath1721">
      <rect
         height="266.112"
         width="266.112"
         x="103.104"
         y="41.472"
         id="rect1719" />
    </clipPath>
    <clipPath
       id="clipPath1725">
      <rect
         height="266.112"
         width="266.112"
         x="103.104"
         y="41.472"
         id="rect1723" />
    </clipPath>
    <clipPath
       id="clipPath1729">
      <rect
         height="266.112"
         width="266.112"
         x="103.104"
         y="41.472"
         id="rect1727" />
    </clipPath>
    <clipPath
       id="clipPath1733">
      <rect
         height="266.112"
         width="266.112"
         x="103.104"
         y="41.472"
         id="rect1731" />
    </clipPath>
    <clipPath
       id="clipPath1737">
      <rect
         height="266.112"
         width="266.112"
         x="103.104"
         y="41.472"
         id="rect1735" />
    </clipPath>
    <clipPath
       id="clipPath1741">
      <rect
         height="266.112"
         width="266.112"
         x="103.104"
         y="41.472"
         id="rect1739" />
    </clipPath>
    <clipPath
       id="clipPath1745">
      <rect
         height="266.112"
         width="266.112"
         x="103.104"
         y="41.472"
         id="rect1743" />
    </clipPath>
    <clipPath
       id="clipPath1749">
      <rect
         height="266.112"
         width="266.112"
         x="103.104"
         y="41.472"
         id="rect1747" />
    </clipPath>
    <clipPath
       id="clipPath1753">
      <rect
         height="266.112"
         width="266.112"
         x="103.104"
         y="41.472"
         id="rect1751" />
    </clipPath>
    <clipPath
       id="clipPath1757">
      <rect
         height="266.112"
         width="266.112"
         x="103.104"
         y="41.472"
         id="rect1755" />
    </clipPath>
    <clipPath
       id="clipPath1761">
      <rect
         height="266.112"
         width="266.112"
         x="103.104"
         y="41.472"
         id="rect1759" />
    </clipPath>
    <clipPath
       id="clipPath1765">
      <rect
         height="266.112"
         width="266.112"
         x="103.104"
         y="41.472"
         id="rect1763" />
    </clipPath>
    <clipPath
       id="clipPath1769">
      <rect
         height="266.112"
         width="266.112"
         x="103.104"
         y="41.472"
         id="rect1767" />
    </clipPath>
    <clipPath
       id="clipPath1773">
      <rect
         height="266.112"
         width="266.112"
         x="103.104"
         y="41.472"
         id="rect1771" />
    </clipPath>
    <clipPath
       id="clipPath1777">
      <rect
         height="266.112"
         width="266.112"
         x="103.104"
         y="41.472"
         id="rect1775" />
    </clipPath>
    <path
       d="M 54.890625,33.015625 V 0 H 45.90625 v 32.71875 q 0,7.765625 -3.03125,11.609375 -3.03125,3.859375 -9.078125,3.859375 -7.28125,0 -11.484375,-4.640625 -4.203125,-4.625 -4.203125,-12.640625 V 0 h -9.03125 v 54.6875 h 9.03125 v -8.5 q 3.234375,4.9375 7.59375,7.375 4.375,2.4375 10.09375,2.4375 9.421875,0 14.25,-5.828125 4.84375,-5.828125 4.84375,-17.15625 z"
       id="DejaVuSans-110-2" />
    <path
       d="M 8.5,21.578125 V 54.6875 h 8.984375 V 21.921875 q 0,-7.765625 3.015625,-11.65625 3.03125,-3.875 9.09375,-3.875 7.265625,0 11.484375,4.640625 4.234375,4.640625 4.234375,12.65625 v 31 h 8.984375 V 0 H 45.3125 V 8.40625 Q 42.046875,3.421875 37.71875,1 33.40625,-1.421875 27.6875,-1.421875 18.265625,-1.421875 13.375,4.4375 8.5,10.296875 8.5,21.578125 Z M 31.109375,56 Z"
       id="DejaVuSans-117-2" />
    <path
       d="M 52,44.1875 Q 55.375,50.25 60.0625,53.125 64.75,56 71.09375,56 q 8.546875,0 13.1875,-5.984375 4.640625,-5.96875 4.640625,-17 V 0 h -9.03125 v 32.71875 q 0,7.859375 -2.796875,11.65625 -2.78125,3.8125 -8.484375,3.8125 -6.984375,0 -11.046875,-4.640625 -4.046875,-4.625 -4.046875,-12.640625 V 0 h -9.03125 v 32.71875 q 0,7.90625 -2.78125,11.6875 -2.78125,3.78125 -8.59375,3.78125 -6.890625,0 -10.953125,-4.65625 -4.046875,-4.65625 -4.046875,-12.625 V 0 h -9.03125 v 54.6875 h 9.03125 v -8.5 q 3.078125,5.03125 7.375,7.421875 Q 29.78125,56 35.6875,56 41.65625,56 45.828125,52.96875 50,49.953125 52,44.1875 Z"
       id="DejaVuSans-109-7" />
    <path
       d="m 3.328125,72.90625 h 9.953125 l 15.328125,-61.625 15.28125,61.625 h 11.09375 l 15.328125,-61.625 15.28125,61.625 H 95.609375 L 77.296875,0 H 64.890625 L 49.515625,63.28125 33.984375,0 h -12.40625 z"
       id="DejaVuSans-87" />
    <path
       d="m 30.609375,48.390625 q -7.21875,0 -11.421875,-5.640625 -4.203125,-5.640625 -4.203125,-15.453125 0,-9.8125 4.171875,-15.453125 4.1875,-5.640625 11.453125,-5.640625 7.1875,0 11.375,5.65625 4.203125,5.671875 4.203125,15.4375 0,9.71875 -4.203125,15.40625 -4.1875,5.6875 -11.375,5.6875 z m 0,7.609375 q 11.71875,0 18.40625,-7.625 6.703125,-7.609375 6.703125,-21.078125 0,-13.421875 -6.703125,-21.078125 -6.6875,-7.640625 -18.40625,-7.640625 -11.765625,0 -18.4375,7.640625 -6.65625,7.65625 -6.65625,21.078125 0,13.46875 6.65625,21.078125 Q 18.84375,56 30.609375,56 Z"
       id="DejaVuSans-111-1" />
    <path
       d="M 9.421875,75.984375 H 18.40625 V 0 H 9.421875 Z"
       id="DejaVuSans-108-5" />
    <path
       d="M 2.984375,54.6875 H 12.5 L 29.59375,8.796875 46.6875,54.6875 h 9.515625 L 35.6875,0 H 23.484375 Z"
       id="DejaVuSans-118" />
    <path
       d="m 56.203125,29.59375 v -4.390625 h -41.3125 q 0.59375,-9.28125 5.59375,-14.140625 5,-4.859375 13.9375,-4.859375 5.171875,0 10.03125,1.265625 4.859375,1.265625 9.65625,3.8125 v -8.5 q -4.84375,-2.046875 -9.921875,-3.125 -5.078125,-1.078125 -10.296875,-1.078125 -13.09375,0 -20.734375,7.609375 -7.640625,7.625 -7.640625,20.625 0,13.421875 7.25,21.296875 Q 20.015625,56 32.328125,56 q 11.03125,0 17.453125,-7.109375 6.421875,-7.09375 6.421875,-19.296875 z m -8.984375,2.640625 q -0.09375,7.359375 -4.125,11.75 -4.03125,4.40625 -10.671875,4.40625 -7.515625,0 -12.03125,-4.25 -4.515625,-4.25 -5.203125,-11.96875 z"
       id="DejaVuSans-101-2" />
    <path
       d="m 44.28125,53.078125 v -8.5 Q 40.484375,46.53125 36.375,47.5 q -4.09375,0.984375 -8.5,0.984375 -6.6875,0 -10.03125,-2.046875 Q 14.5,44.390625 14.5,40.28125 q 0,-3.125 2.390625,-4.90625 2.390625,-1.78125 9.625,-3.390625 l 3.078125,-0.6875 Q 39.15625,29.25 43.1875,25.515625 47.21875,21.78125 47.21875,15.09375 q 0,-7.625 -6.03125,-12.078125 -6.03125,-4.4375 -16.578125,-4.4375 -4.390625,0 -9.15625,0.859375 Q 10.6875,0.296875 5.421875,2 v 9.28125 q 4.984375,-2.59375 9.8125,-3.890625 4.828125,-1.28125 9.578125,-1.28125 6.34375,0 9.75,2.171875 3.421875,2.171875 3.421875,6.125 0,3.65625 -2.46875,5.609375 -2.453125,1.953125 -10.8125,3.765625 l -3.125,0.734375 q -8.34375,1.75 -12.0625,5.390625 -3.703125,3.640625 -3.703125,9.984375 0,7.71875 5.46875,11.90625 Q 16.75,56 26.8125,56 q 4.96875,0 9.359375,-0.734375 4.40625,-0.71875 8.109375,-2.1875 z"
       id="DejaVuSans-115-1" />
    <path
       d="M 19.1875,8.296875 H 53.609375 V 0 H 7.328125 v 8.296875 q 5.609375,5.8125 15.296875,15.59375 9.703125,9.796875 12.1875,12.640625 4.734375,5.3125 6.609375,9 1.890625,3.6875 1.890625,7.25 0,5.8125 -4.078125,9.46875 -4.078125,3.671875 -10.625,3.671875 -4.640625,0 -9.796875,-1.609375 -5.140625,-1.609375 -11,-4.890625 v 9.96875 Q 13.765625,71.78125 18.9375,73 q 5.1875,1.21875 9.484375,1.21875 11.328125,0 18.0625,-5.671875 6.734375,-5.65625 6.734375,-15.125 0,-4.5 -1.6875,-8.53125 Q 49.859375,40.875 45.40625,35.40625 44.1875,33.984375 37.640625,27.21875 31.109375,20.453125 19.1875,8.296875 Z"
       id="DejaVuSans-50-7" />
    <path
       d="M 40.578125,39.3125 Q 47.65625,37.796875 51.625,33 q 3.984375,-4.78125 3.984375,-11.8125 0,-10.78125 -7.421875,-16.703125 -7.421875,-5.90625 -21.09375,-5.90625 -4.578125,0 -9.4375,0.90625 -4.859375,0.90625 -10.03125,2.71875 v 9.515625 q 4.09375,-2.390625 8.96875,-3.609375 4.890625,-1.21875 10.21875,-1.21875 9.265625,0 14.125,3.65625 4.859375,3.65625 4.859375,10.640625 0,6.453125 -4.515625,10.078125 -4.515625,3.640625 -12.5625,3.640625 h -8.5 v 8.109375 h 8.890625 q 7.265625,0 11.125,2.90625 3.859375,2.90625 3.859375,8.375 0,5.609375 -3.984375,8.609375 -3.96875,3.015625 -11.390625,3.015625 -4.0625,0 -8.703125,-0.890625 Q 15.375,64.15625 9.8125,62.3125 v 8.78125 q 5.625,1.5625 10.53125,2.34375 4.90625,0.78125 9.25,0.78125 11.234375,0 17.765625,-5.109375 6.546875,-5.09375 6.546875,-13.78125 0,-6.0625 -3.46875,-10.234375 -3.46875,-4.171875 -9.859375,-5.78125 z"
       id="DejaVuSans-51-9" />
    <path
       d="M 37.796875,64.3125 12.890625,25.390625 h 24.90625 z m -2.59375,8.59375 h 12.40625 V 25.390625 h 10.40625 V 17.1875 H 47.609375 V 0 h -9.8125 V 17.1875 H 4.890625 v 9.515625 z"
       id="DejaVuSans-52-8" />
    <path
       d="m 10.796875,72.90625 h 38.71875 v -8.3125 h -29.6875 V 46.734375 q 2.140625,0.734375 4.28125,1.09375 2.15625,0.359375 4.3125,0.359375 Q 40.625,48.1875 47.75,41.5 54.890625,34.8125 54.890625,23.390625 54.890625,11.625 47.5625,5.09375 40.234375,-1.421875 26.90625,-1.421875 q -4.59375,0 -9.359375,0.78125 -4.75,0.78125 -9.828125,2.34375 V 11.625 q 4.390625,-2.390625 9.078125,-3.5625 4.6875,-1.171875 9.90625,-1.171875 8.453125,0 13.375,4.4375 4.9375,4.4375 4.9375,12.0625 0,7.609375 -4.9375,12.046875 -4.921875,4.453125 -13.375,4.453125 -3.953125,0 -7.890625,-0.875 -3.921875,-0.875 -8.015625,-2.734375 z"
       id="DejaVuSans-53-3" />
    <path
       d="m 33.015625,40.375 q -6.640625,0 -10.53125,-4.546875 -3.875,-4.53125 -3.875,-12.4375 0,-7.859375 3.875,-12.4375 3.890625,-4.5625 10.53125,-4.5625 6.640625,0 10.515625,4.5625 3.875,4.578125 3.875,12.4375 0,7.90625 -3.875,12.4375 Q 39.65625,40.375 33.015625,40.375 Z M 52.59375,71.296875 V 62.3125 q -3.71875,1.75 -7.5,2.671875 -3.78125,0.9375 -7.5,0.9375 -9.765625,0 -14.921875,-6.59375 -5.140625,-6.59375 -5.875,-19.921875 2.875,4.25 7.21875,6.515625 4.359375,2.265625 9.578125,2.265625 10.984375,0 17.359375,-6.671875 6.375,-6.65625 6.375,-18.125 0,-11.234375 -6.640625,-18.03125 -6.640625,-6.78125 -17.671875,-6.78125 -12.65625,0 -19.34375,9.6875 -6.6875,9.703125 -6.6875,28.109375 0,17.28125 8.203125,27.5625 8.203125,10.28125 22.015625,10.28125 3.71875,0 7.5,-0.734375 3.78125,-0.734375 7.890625,-2.1875 z"
       id="DejaVuSans-54-6" />
    <path
       d="M 37.109375,75.984375 V 68.5 h -8.59375 q -4.828125,0 -6.71875,-1.953125 -1.875,-1.953125 -1.875,-7.03125 V 54.6875 H 34.71875 V 47.703125 H 19.921875 V 0 h -9.03125 V 47.703125 H 2.296875 V 54.6875 h 8.59375 V 58.5 q 0,9.125 4.25,13.296875 4.25,4.1875 13.46875,4.1875 z"
       id="DejaVuSans-102-0" />
    <path
       d="M 9.421875,54.6875 H 18.40625 V 0 H 9.421875 Z m 0,21.296875 H 18.40625 V 64.59375 H 9.421875 Z"
       id="DejaVuSans-105-8" />
    <path
       d="M 54.890625,33.015625 V 0 H 45.90625 v 32.71875 q 0,7.765625 -3.03125,11.609375 -3.03125,3.859375 -9.078125,3.859375 -7.28125,0 -11.484375,-4.640625 -4.203125,-4.625 -4.203125,-12.640625 V 0 h -9.03125 v 75.984375 h 9.03125 V 46.1875 q 3.234375,4.9375 7.59375,7.375 4.375,2.4375 10.09375,2.4375 9.421875,0 14.25,-5.828125 4.84375,-5.828125 4.84375,-17.15625 z"
       id="DejaVuSans-104-4" />
    <path
       d="m 9.8125,72.90625 h 9.859375 V 0 H 9.8125 Z"
       id="DejaVuSans-73-0" />
    <path
       d="m 45.40625,46.390625 v 29.59375 h 8.984375 V 0 H 45.40625 v 8.203125 q -2.828125,-4.875 -7.15625,-7.25 -4.3125,-2.375 -10.375,-2.375 -9.90625,0 -16.140625,7.90625 -6.21875,7.921875 -6.21875,20.8125 0,12.890625 6.21875,20.796875 Q 17.96875,56 27.875,56 q 6.0625,0 10.375,-2.375 4.328125,-2.359375 7.15625,-7.234375 z M 14.796875,27.296875 q 0,-9.90625 4.078125,-15.546875 4.078125,-5.640625 11.203125,-5.640625 7.125,0 11.21875,5.640625 4.109375,5.640625 4.109375,15.546875 0,9.90625 -4.109375,15.546875 -4.09375,5.640625 -11.21875,5.640625 -7.125,0 -11.203125,-5.640625 -4.078125,-5.640625 -4.078125,-15.546875 z"
       id="DejaVuSans-100-4" />
    <path
       d="M 54.890625,54.6875 35.109375,28.078125 55.90625,0 H 45.3125 L 29.390625,21.484375 13.484375,0 H 2.875 L 24.125,28.609375 4.6875,54.6875 h 10.59375 l 14.5,-19.484375 14.5,19.484375 z"
       id="DejaVuSans-120-6" />
    <path
       d="M 9.8125,72.90625 H 24.515625 L 43.109375,23.296875 61.8125,72.90625 H 76.515625 V 0 h -9.625 v 64.015625 l -18.796875,-50 H 38.1875 l -18.796875,50 V 0 H 9.8125 Z"
       id="DejaVuSans-77-0" />
    <path
       d="m 34.28125,27.484375 q -10.890625,0 -15.09375,-2.484375 -4.203125,-2.484375 -4.203125,-8.5 0,-4.78125 3.15625,-7.59375 3.15625,-2.796875 8.5625,-2.796875 7.484375,0 12,5.296875 4.515625,5.296875 4.515625,14.078125 v 2 z m 17.921875,3.71875 V 0 H 43.21875 v 8.296875 q -3.078125,-4.96875 -7.671875,-7.34375 -4.59375,-2.375 -11.234375,-2.375 -8.390625,0 -13.359375,4.71875 Q 6,8.015625 6,15.921875 q 0,9.21875 6.171875,13.90625 6.1875,4.6875 18.4375,4.6875 H 43.21875 v 0.890625 q 0,6.203125 -4.078125,9.59375 -4.078125,3.390625 -11.453125,3.390625 -4.6875,0 -9.140625,-1.125 -4.4375,-1.125 -8.53125,-3.375 v 8.3125 q 4.921875,1.90625 9.5625,2.84375 Q 24.21875,56 28.609375,56 q 11.875,0 17.734375,-6.15625 5.859375,-6.140625 5.859375,-18.640625 z"
       id="DejaVuSans-97-4" />
    <path
       id="DejaVuSans-32-8"
       d="" />
    <path
       d="m 9.8125,72.90625 h 46.09375 v -8.3125 H 19.671875 V 43.015625 h 34.71875 V 34.71875 H 19.671875 V 8.296875 H 56.78125 V 0 H 9.8125 Z"
       id="DejaVuSans-69-5" />
    <path
       d="m 18.109375,8.203125 v -29 H 9.078125 V 54.6875 h 9.03125 v -8.296875 q 2.84375,4.875 7.15625,7.234375 Q 29.59375,56 35.59375,56 q 9.96875,0 16.1875,-7.90625 6.234375,-7.90625 6.234375,-20.796875 0,-12.890625 -6.234375,-20.8125 -6.21875,-7.90625 -16.1875,-7.90625 -6,0 -10.328125,2.375 -4.3125,2.375 -7.15625,7.25 z M 48.6875,27.296875 q 0,9.90625 -4.078125,15.546875 -4.078125,5.640625 -11.203125,5.640625 -7.140625,0 -11.21875,-5.640625 -4.078125,-5.640625 -4.078125,-15.546875 0,-9.90625 4.078125,-15.546875 4.078125,-5.640625 11.21875,-5.640625 7.125,0 11.203125,5.640625 4.078125,5.640625 4.078125,15.546875 z"
       id="DejaVuSans-112-5" />
    <path
       d="m 9.8125,72.90625 h 9.859375 v -30.8125 l 32.71875,30.8125 H 65.09375 L 28.90625,38.921875 67.671875,0 H 54.6875 L 19.671875,35.109375 V 0 H 9.8125 Z"
       id="DejaVuSans-75-5" />
    <path
       d="m 31.78125,34.625 q -7.03125,0 -11.0625,-3.765625 -4.015625,-3.765625 -4.015625,-10.34375 0,-6.59375 4.015625,-10.359375 4.03125,-3.765625 11.0625,-3.765625 7.03125,0 11.078125,3.78125 4.0625,3.796875 4.0625,10.34375 0,6.578125 -4.03125,10.34375 Q 38.875,34.625 31.78125,34.625 Z m -9.859375,4.1875 Q 15.578125,40.375 12.03125,44.71875 8.5,49.078125 8.5,55.328125 q 0,8.734375 6.21875,13.8125 6.234375,5.078125 17.0625,5.078125 10.890625,0 17.09375,-5.078125 6.203125,-5.078125 6.203125,-13.8125 0,-6.25 -3.546875,-10.609375 Q 48,40.375 41.703125,38.8125 q 7.125,-1.65625 11.09375,-6.5 3.984375,-4.828125 3.984375,-11.796875 0,-10.609375 -6.46875,-16.28125 -6.46875,-5.65625 -18.53125,-5.65625 -12.046875,0 -18.53125,5.65625 -6.46875,5.671875 -6.46875,16.28125 0,6.96875 4,11.796875 4.015625,4.84375 11.140625,6.5 z M 18.3125,54.390625 q 0,-5.65625 3.53125,-8.828125 3.546875,-3.171875 9.9375,-3.171875 6.359375,0 9.9375,3.171875 3.59375,3.171875 3.59375,8.828125 0,5.671875 -3.59375,8.84375 -3.578125,3.171875 -9.9375,3.171875 -6.390625,0 -9.9375,-3.171875 Q 18.3125,60.0625 18.3125,54.390625 Z"
       id="DejaVuSans-56-9" />
    <path
       d="m 12.40625,8.296875 h 16.109375 v 55.625 L 10.984375,60.40625 v 8.984375 l 17.4375,3.515625 H 38.28125 V 8.296875 H 54.390625 V 0 H 12.40625 Z"
       id="DejaVuSans-49-5" />
    <path
       d="m 31.78125,66.40625 q -7.609375,0 -11.453125,-7.5 Q 16.5,51.421875 16.5,36.375 q 0,-14.984375 3.828125,-22.484375 3.84375,-7.5 11.453125,-7.5 7.671875,0 11.5,7.5 3.84375,7.5 3.84375,22.484375 0,15.046875 -3.84375,22.53125 -3.828125,7.5 -11.5,7.5 z m 0,7.8125 q 12.265625,0 18.734375,-9.703125 6.46875,-9.6875 6.46875,-28.140625 0,-18.40625 -6.46875,-28.109375 -6.46875,-9.6875 -18.734375,-9.6875 -12.25,0 -18.71875,9.6875 Q 6.59375,17.96875 6.59375,36.375 q 0,18.453125 6.46875,28.140625 6.46875,9.703125 18.71875,9.703125 z"
       id="DejaVuSans-48-0" />
    <path
       d="M 4.203125,54.6875 H 13.1875 L 24.421875,12.015625 35.59375,54.6875 H 46.1875 L 57.421875,12.015625 68.609375,54.6875 H 77.59375 L 63.28125,0 H 52.6875 L 40.921875,44.828125 29.109375,0 H 18.5 Z"
       id="DejaVuSans-119-6" />
    <path
       d="M 18.3125,70.21875 V 54.6875 h 18.5 v -6.984375 h -18.5 v -29.6875 q 0,-6.6875 1.828125,-8.59375 1.828125,-1.90625 7.453125,-1.90625 H 36.8125 V 0 H 27.59375 Q 17.1875,0 13.234375,3.875 9.28125,7.765625 9.28125,18.015625 v 29.6875 H 2.6875 V 54.6875 h 6.59375 v 15.53125 z"
       id="DejaVuSans-116-7" />
    <path
       d="m 8.203125,72.90625 h 46.875 V 68.703125 L 28.609375,0 H 18.3125 L 43.21875,64.59375 H 8.203125 Z"
       id="DejaVuSans-55-9" />
    <path
       d="M 25.390625,72.90625 H 33.6875 L 8.296875,-9.28125 H 0 Z"
       id="DejaVuSans-47-4" />
    <path
       d="m 45.40625,27.984375 q 0,9.765625 -4.03125,15.125 -4.015625,5.375 -11.296875,5.375 -7.21875,0 -11.25,-5.375 -4.03125,-5.359375 -4.03125,-15.125 0,-9.71875 4.03125,-15.09375 4.03125,-5.375 11.25,-5.375 7.28125,0 11.296875,5.375 4.03125,5.375 4.03125,15.09375 z M 54.390625,6.78125 q 0,-13.953125 -6.203125,-20.765625 -6.1875,-6.8125 -18.984375,-6.8125 -4.734375,0 -8.9375,0.703125 -4.203125,0.703125 -8.15625,2.171875 V -9.1875 q 3.953125,-2.140625 7.8125,-3.15625 3.859375,-1.03125 7.859375,-1.03125 8.84375,0 13.234375,4.609375 4.390625,4.609375 4.390625,13.9375 V 9.625 Q 42.625,4.78125 38.28125,2.390625 33.9375,0 27.875,0 17.828125,0 11.671875,7.65625 q -6.15625,7.671875 -6.15625,20.328125 0,12.6875 6.15625,20.34375 Q 17.828125,56 27.875,56 q 6.0625,0 10.40625,-2.390625 4.34375,-2.390625 7.125,-7.21875 V 54.6875 h 8.984375 z"
       id="DejaVuSans-103" />
  </defs>
  <g
     id="figure_1" />
  <g
     inkscape:groupmode="layer"
     id="layer1"
     inkscape:label="Layer 1">
    <g
       id="pane3d_1">
      <g
         id="patch_3">
        <path
           d="M 131.35342,255.82439 232.71223,168.8985 232.40184,59.022891 126.05093,138.10803"
           style="opacity:0.5;fill:#f2f2f2;stroke:#f2f2f2;stroke-linejoin:miter"
           id="path986" />
      </g>
    </g>
    <g
       id="pane3d_2">
      <g
         id="patch_4">
        <path
           d="M 232.71223,168.8985 341.58668,200.32785 346.25187,87.532754 232.40184,59.022891"
           style="opacity:0.5;fill:#e6e6e6;stroke:#e6e6e6;stroke-linejoin:miter"
           id="path990" />
      </g>
    </g>
    <g
       id="pane3d_3">
      <g
         id="patch_5">
        <path
           d="m 131.35342,255.82439 116.5132,38.5242 93.72006,-94.02074 -108.87445,-31.42935"
           style="opacity:0.5;fill:#ececec;stroke:#ececec;stroke-linejoin:miter"
           id="path994" />
      </g>
    </g>
    <g
       id="axis3d_1">
      <g
         id="line2d_1">
        <path
           d="m 131.35342,255.82439 116.5132,38.5242"
           style="fill:none;stroke:#000000;stroke-width:0.8;stroke-linecap:square"
           id="path998" />
      </g>
      <g
         id="text_1">
        <!-- Number of Predators -->
        <g
           transform="matrix(0.0949447,0.03139274,0.03139274,-0.0949447,118.93961,299.9635)"
           id="g1055">
          <defs
             id="defs1015">
            <path
               d="M 9.8125,72.90625 H 23.09375 L 55.421875,11.921875 V 72.90625 h 9.5625 V 0 h -13.28125 l -32.3125,60.984375 V 0 H 9.8125 Z"
               id="DejaVuSans-78" />
            <path
               d="M 8.5,21.578125 V 54.6875 h 8.984375 V 21.921875 q 0,-7.765625 3.015625,-11.65625 3.03125,-3.875 9.09375,-3.875 7.265625,0 11.484375,4.640625 4.234375,4.640625 4.234375,12.65625 v 31 h 8.984375 V 0 H 45.3125 V 8.40625 Q 42.046875,3.421875 37.71875,1 33.40625,-1.421875 27.6875,-1.421875 18.265625,-1.421875 13.375,4.4375 8.5,10.296875 8.5,21.578125 Z M 31.109375,56 Z"
               id="DejaVuSans-117" />
            <path
               d="M 52,44.1875 Q 55.375,50.25 60.0625,53.125 64.75,56 71.09375,56 q 8.546875,0 13.1875,-5.984375 4.640625,-5.96875 4.640625,-17 V 0 h -9.03125 v 32.71875 q 0,7.859375 -2.796875,11.65625 -2.78125,3.8125 -8.484375,3.8125 -6.984375,0 -11.046875,-4.640625 -4.046875,-4.625 -4.046875,-12.640625 V 0 h -9.03125 v 32.71875 q 0,7.90625 -2.78125,11.6875 -2.78125,3.78125 -8.59375,3.78125 -6.890625,0 -10.953125,-4.65625 -4.046875,-4.65625 -4.046875,-12.625 V 0 h -9.03125 v 54.6875 h 9.03125 v -8.5 q 3.078125,5.03125 7.375,7.421875 Q 29.78125,56 35.6875,56 41.65625,56 45.828125,52.96875 50,49.953125 52,44.1875 Z"
               id="DejaVuSans-109" />
            <path
               d="m 48.6875,27.296875 q 0,9.90625 -4.078125,15.546875 -4.078125,5.640625 -11.203125,5.640625 -7.140625,0 -11.21875,-5.640625 -4.078125,-5.640625 -4.078125,-15.546875 0,-9.90625 4.078125,-15.546875 4.078125,-5.640625 11.21875,-5.640625 7.125,0 11.203125,5.640625 4.078125,5.640625 4.078125,15.546875 z m -30.578125,19.09375 q 2.84375,4.875 7.15625,7.234375 Q 29.59375,56 35.59375,56 q 9.96875,0 16.1875,-7.90625 6.234375,-7.90625 6.234375,-20.796875 0,-12.890625 -6.234375,-20.8125 -6.21875,-7.90625 -16.1875,-7.90625 -6,0 -10.328125,2.375 -4.3125,2.375 -7.15625,7.25 V 0 h -9.03125 v 75.984375 h 9.03125 z"
               id="DejaVuSans-98" />
            <path
               d="m 56.203125,29.59375 v -4.390625 h -41.3125 q 0.59375,-9.28125 5.59375,-14.140625 5,-4.859375 13.9375,-4.859375 5.171875,0 10.03125,1.265625 4.859375,1.265625 9.65625,3.8125 v -8.5 q -4.84375,-2.046875 -9.921875,-3.125 -5.078125,-1.078125 -10.296875,-1.078125 -13.09375,0 -20.734375,7.609375 -7.640625,7.625 -7.640625,20.625 0,13.421875 7.25,21.296875 Q 20.015625,56 32.328125,56 q 11.03125,0 17.453125,-7.109375 6.421875,-7.09375 6.421875,-19.296875 z m -8.984375,2.640625 q -0.09375,7.359375 -4.125,11.75 -4.03125,4.40625 -10.671875,4.40625 -7.515625,0 -12.03125,-4.25 -4.515625,-4.25 -5.203125,-11.96875 z"
               id="DejaVuSans-101" />
            <path
               d="m 41.109375,46.296875 q -1.515625,0.875 -3.296875,1.28125 Q 36.03125,48 33.890625,48 26.265625,48 22.1875,43.046875 18.109375,38.09375 18.109375,28.8125 V 0 h -9.03125 v 54.6875 h 9.03125 v -8.5 q 2.84375,4.984375 7.375,7.390625 Q 30.03125,56 36.53125,56 q 0.921875,0 2.046875,-0.125 1.125,-0.109375 2.484375,-0.359375 z"
               id="DejaVuSans-114" />
            <path
               id="DejaVuSans-32"
               d="" />
            <path
               d="m 30.609375,48.390625 q -7.21875,0 -11.421875,-5.640625 -4.203125,-5.640625 -4.203125,-15.453125 0,-9.8125 4.171875,-15.453125 4.1875,-5.640625 11.453125,-5.640625 7.1875,0 11.375,5.65625 4.203125,5.671875 4.203125,15.4375 0,9.71875 -4.203125,15.40625 -4.1875,5.6875 -11.375,5.6875 z m 0,7.609375 q 11.71875,0 18.40625,-7.625 6.703125,-7.609375 6.703125,-21.078125 0,-13.421875 -6.703125,-21.078125 -6.6875,-7.640625 -18.40625,-7.640625 -11.765625,0 -18.4375,7.640625 -6.65625,7.65625 -6.65625,21.078125 0,13.46875 6.65625,21.078125 Q 18.84375,56 30.609375,56 Z"
               id="DejaVuSans-111" />
            <path
               d="M 37.109375,75.984375 V 68.5 h -8.59375 q -4.828125,0 -6.71875,-1.953125 -1.875,-1.953125 -1.875,-7.03125 V 54.6875 H 34.71875 V 47.703125 H 19.921875 V 0 h -9.03125 V 47.703125 H 2.296875 V 54.6875 h 8.59375 V 58.5 q 0,9.125 4.25,13.296875 4.25,4.1875 13.46875,4.1875 z"
               id="DejaVuSans-102" />
            <path
               d="M 19.671875,64.796875 V 37.40625 h 12.40625 q 6.890625,0 10.640625,3.5625 3.765625,3.5625 3.765625,10.15625 0,6.546875 -3.765625,10.109375 -3.75,3.5625 -10.640625,3.5625 z M 9.8125,72.90625 h 22.265625 q 12.265625,0 18.53125,-5.546875 6.28125,-5.546875 6.28125,-16.234375 0,-10.796875 -6.28125,-16.3125 -6.265625,-5.515625 -18.53125,-5.515625 H 19.671875 V 0 H 9.8125 Z"
               id="DejaVuSans-80" />
            <path
               d="m 45.40625,46.390625 v 29.59375 h 8.984375 V 0 H 45.40625 v 8.203125 q -2.828125,-4.875 -7.15625,-7.25 -4.3125,-2.375 -10.375,-2.375 -9.90625,0 -16.140625,7.90625 -6.21875,7.921875 -6.21875,20.8125 0,12.890625 6.21875,20.796875 Q 17.96875,56 27.875,56 q 6.0625,0 10.375,-2.375 4.328125,-2.359375 7.15625,-7.234375 z M 14.796875,27.296875 q 0,-9.90625 4.078125,-15.546875 4.078125,-5.640625 11.203125,-5.640625 7.125,0 11.21875,5.640625 4.109375,5.640625 4.109375,15.546875 0,9.90625 -4.109375,15.546875 -4.09375,5.640625 -11.21875,5.640625 -7.125,0 -11.203125,-5.640625 -4.078125,-5.640625 -4.078125,-15.546875 z"
               id="DejaVuSans-100" />
            <path
               d="m 34.28125,27.484375 q -10.890625,0 -15.09375,-2.484375 -4.203125,-2.484375 -4.203125,-8.5 0,-4.78125 3.15625,-7.59375 3.15625,-2.796875 8.5625,-2.796875 7.484375,0 12,5.296875 4.515625,5.296875 4.515625,14.078125 v 2 z m 17.921875,3.71875 V 0 H 43.21875 v 8.296875 q -3.078125,-4.96875 -7.671875,-7.34375 -4.59375,-2.375 -11.234375,-2.375 -8.390625,0 -13.359375,4.71875 Q 6,8.015625 6,15.921875 q 0,9.21875 6.171875,13.90625 6.1875,4.6875 18.4375,4.6875 H 43.21875 v 0.890625 q 0,6.203125 -4.078125,9.59375 -4.078125,3.390625 -11.453125,3.390625 -4.6875,0 -9.140625,-1.125 -4.4375,-1.125 -8.53125,-3.375 v 8.3125 q 4.921875,1.90625 9.5625,2.84375 Q 24.21875,56 28.609375,56 q 11.875,0 17.734375,-6.15625 5.859375,-6.140625 5.859375,-18.640625 z"
               id="DejaVuSans-97" />
            <path
               d="M 18.3125,70.21875 V 54.6875 h 18.5 v -6.984375 h -18.5 v -29.6875 q 0,-6.6875 1.828125,-8.59375 1.828125,-1.90625 7.453125,-1.90625 H 36.8125 V 0 H 27.59375 Q 17.1875,0 13.234375,3.875 9.28125,7.765625 9.28125,18.015625 v 29.6875 H 2.6875 V 54.6875 h 6.59375 v 15.53125 z"
               id="DejaVuSans-116" />
            <path
               d="m 44.28125,53.078125 v -8.5 Q 40.484375,46.53125 36.375,47.5 q -4.09375,0.984375 -8.5,0.984375 -6.6875,0 -10.03125,-2.046875 Q 14.5,44.390625 14.5,40.28125 q 0,-3.125 2.390625,-4.90625 2.390625,-1.78125 9.625,-3.390625 l 3.078125,-0.6875 Q 39.15625,29.25 43.1875,25.515625 47.21875,21.78125 47.21875,15.09375 q 0,-7.625 -6.03125,-12.078125 -6.03125,-4.4375 -16.578125,-4.4375 -4.390625,0 -9.15625,0.859375 Q 10.6875,0.296875 5.421875,2 v 9.28125 q 4.984375,-2.59375 9.8125,-3.890625 4.828125,-1.28125 9.578125,-1.28125 6.34375,0 9.75,2.171875 3.421875,2.171875 3.421875,6.125 0,3.65625 -2.46875,5.609375 -2.453125,1.953125 -10.8125,3.765625 l -3.125,0.734375 q -8.34375,1.75 -12.0625,5.390625 -3.703125,3.640625 -3.703125,9.984375 0,7.71875 5.46875,11.90625 Q 16.75,56 26.8125,56 q 4.96875,0 9.359375,-0.734375 4.40625,-0.71875 8.109375,-2.1875 z"
               id="DejaVuSans-115" />
          </defs>
          <use
             xlink:href="#DejaVuSans-78"
             id="use1017"
             x="0"
             y="0"
             width="100%"
             height="100%" />
          <use
             x="74.804688"
             xlink:href="#DejaVuSans-117"
             id="use1019"
             y="0"
             width="100%"
             height="100%" />
          <use
             x="138.18359"
             xlink:href="#DejaVuSans-109"
             id="use1021"
             y="0"
             width="100%"
             height="100%" />
          <use
             x="235.5957"
             xlink:href="#DejaVuSans-98"
             id="use1023"
             y="0"
             width="100%"
             height="100%" />
          <use
             x="299.07227"
             xlink:href="#DejaVuSans-101"
             id="use1025"
             y="0"
             width="100%"
             height="100%" />
          <use
             x="360.5957"
             xlink:href="#DejaVuSans-114"
             id="use1027"
             y="0"
             width="100%"
             height="100%" />
          <use
             x="401.70898"
             xlink:href="#DejaVuSans-32"
             id="use1029"
             y="0"
             width="100%"
             height="100%" />
          <use
             x="433.49609"
             xlink:href="#DejaVuSans-111"
             id="use1031"
             y="0"
             width="100%"
             height="100%" />
          <use
             x="494.67773"
             xlink:href="#DejaVuSans-102"
             id="use1033"
             y="0"
             width="100%"
             height="100%" />
          <use
             x="529.88281"
             xlink:href="#DejaVuSans-32"
             id="use1035"
             y="0"
             width="100%"
             height="100%" />
          <use
             x="561.66992"
             xlink:href="#DejaVuSans-80"
             id="use1037"
             y="0"
             width="100%"
             height="100%" />
          <use
             x="620.22266"
             xlink:href="#DejaVuSans-114"
             id="use1039"
             y="0"
             width="100%"
             height="100%" />
          <use
             x="659.08594"
             xlink:href="#DejaVuSans-101"
             id="use1041"
             y="0"
             width="100%"
             height="100%" />
          <use
             x="720.60938"
             xlink:href="#DejaVuSans-100"
             id="use1043"
             y="0"
             width="100%"
             height="100%" />
          <use
             x="784.08594"
             xlink:href="#DejaVuSans-97"
             id="use1045"
             y="0"
             width="100%"
             height="100%" />
          <use
             x="845.36523"
             xlink:href="#DejaVuSans-116"
             id="use1047"
             y="0"
             width="100%"
             height="100%" />
          <use
             x="884.57422"
             xlink:href="#DejaVuSans-111"
             id="use1049"
             y="0"
             width="100%"
             height="100%" />
          <use
             x="945.75586"
             xlink:href="#DejaVuSans-114"
             id="use1051"
             y="0"
             width="100%"
             height="100%" />
          <use
             x="986.86914"
             xlink:href="#DejaVuSans-115"
             id="use1053"
             y="0"
             width="100%"
             height="100%" />
        </g>
      </g>
      <g
         id="Line3DCollection_1">
        <path
           d="M 138.48678,258.18298 239.40293,170.82994 239.38733,60.772168"
           style="fill:none;stroke:#b0b0b0;stroke-width:0.8"
           id="path1058" />
        <path
           d="m 163.22562,266.36269 99.3556,-88.84176 1.01672,-110.686038"
           style="fill:none;stroke:#b0b0b0;stroke-width:0.8"
           id="path1060" />
        <path
           d="m 188.4094,274.68951 97.72667,-90.36888 2.08349,-111.320092"
           style="fill:none;stroke:#b0b0b0;stroke-width:0.8"
           id="path1062" />
        <path
           d="m 214.05026,283.16747 96.02648,-91.93576 3.186,-111.959962"
           style="fill:none;stroke:#b0b0b0;stroke-width:0.8"
           id="path1064" />
        <path
           d="m 240.16074,291.8007 94.25204,-93.54378 4.32561,-112.605662"
           style="fill:none;stroke:#b0b0b0;stroke-width:0.8"
           id="path1066" />
      </g>
      <g
         id="xtick_1">
        <g
           id="line2d_2">
          <path
             d="m 139.37829,257.41129 -2.67903,2.31897"
             style="fill:none;stroke:#000000;stroke-width:0.8;stroke-linecap:square"
             id="path1069" />
        </g>
        <g
           id="text_2">
          <!-- 2 -->
          <g
             transform="matrix(0.1,0,0,-0.1,126.4011,283.20285)"
             id="g1077">
            <defs
               id="defs1073">
              <path
                 d="M 19.1875,8.296875 H 53.609375 V 0 H 7.328125 v 8.296875 q 5.609375,5.8125 15.296875,15.59375 9.703125,9.796875 12.1875,12.640625 4.734375,5.3125 6.609375,9 1.890625,3.6875 1.890625,7.25 0,5.8125 -4.078125,9.46875 -4.078125,3.671875 -10.625,3.671875 -4.640625,0 -9.796875,-1.609375 -5.140625,-1.609375 -11,-4.890625 v 9.96875 Q 13.765625,71.78125 18.9375,73 q 5.1875,1.21875 9.484375,1.21875 11.328125,0 18.0625,-5.671875 6.734375,-5.65625 6.734375,-15.125 0,-4.5 -1.6875,-8.53125 Q 49.859375,40.875 45.40625,35.40625 44.1875,33.984375 37.640625,27.21875 31.109375,20.453125 19.1875,8.296875 Z"
                 id="DejaVuSans-50" />
            </defs>
            <use
               xlink:href="#DejaVuSans-50"
               id="use1075"
               x="0"
               y="0"
               width="100%"
               height="100%" />
          </g>
        </g>
      </g>
      <g
         id="xtick_2">
        <g
           id="line2d_3">
          <path
             d="m 164.10407,265.57719 -2.63986,2.3605"
             style="fill:none;stroke:#000000;stroke-width:0.8;stroke-linecap:square"
             id="path1081" />
        </g>
        <g
           id="text_3">
          <!-- 3 -->
          <g
             transform="matrix(0.1,0,0,-0.1,151.1818,291.5788)"
             id="g1089">
            <defs
               id="defs1085">
              <path
                 d="M 40.578125,39.3125 Q 47.65625,37.796875 51.625,33 q 3.984375,-4.78125 3.984375,-11.8125 0,-10.78125 -7.421875,-16.703125 -7.421875,-5.90625 -21.09375,-5.90625 -4.578125,0 -9.4375,0.90625 -4.859375,0.90625 -10.03125,2.71875 v 9.515625 q 4.09375,-2.390625 8.96875,-3.609375 4.890625,-1.21875 10.21875,-1.21875 9.265625,0 14.125,3.65625 4.859375,3.65625 4.859375,10.640625 0,6.453125 -4.515625,10.078125 -4.515625,3.640625 -12.5625,3.640625 h -8.5 v 8.109375 h 8.890625 q 7.265625,0 11.125,2.90625 3.859375,2.90625 3.859375,8.375 0,5.609375 -3.984375,8.609375 -3.96875,3.015625 -11.390625,3.015625 -4.0625,0 -8.703125,-0.890625 Q 15.375,64.15625 9.8125,62.3125 v 8.78125 q 5.625,1.5625 10.53125,2.34375 4.90625,0.78125 9.25,0.78125 11.234375,0 17.765625,-5.109375 6.546875,-5.09375 6.546875,-13.78125 0,-6.0625 -3.46875,-10.234375 -3.46875,-4.171875 -9.859375,-5.78125 z"
                 id="DejaVuSans-51" />
            </defs>
            <use
               xlink:href="#DejaVuSans-51"
               id="use1087"
               x="0"
               y="0"
               width="100%"
               height="100%" />
          </g>
        </g>
      </g>
      <g
         id="xtick_3">
        <g
           id="line2d_4">
          <path
             d="m 189.2742,273.88983 -2.59884,2.40317"
             style="fill:none;stroke:#000000;stroke-width:0.8;stroke-linecap:square"
             id="path1093" />
        </g>
        <g
           id="text_4">
          <!-- 4 -->
          <g
             transform="matrix(0.1,0,0,-0.1,176.41042,300.10616)"
             id="g1101">
            <defs
               id="defs1097">
              <path
                 d="M 37.796875,64.3125 12.890625,25.390625 h 24.90625 z m -2.59375,8.59375 h 12.40625 V 25.390625 h 10.40625 V 17.1875 H 47.609375 V 0 h -9.8125 V 17.1875 H 4.890625 v 9.515625 z"
                 id="DejaVuSans-52" />
            </defs>
            <use
               xlink:href="#DejaVuSans-52"
               id="use1099"
               x="0"
               y="0"
               width="100%"
               height="100%" />
          </g>
        </g>
      </g>
      <g
         id="xtick_4">
        <g
           id="line2d_5">
          <path
             d="m 214.90075,282.35321 -2.55589,2.447"
             style="fill:none;stroke:#000000;stroke-width:0.8;stroke-linecap:square"
             id="path1105" />
        </g>
        <g
           id="text_5">
          <!-- 5 -->
          <g
             transform="matrix(0.1,0,0,-0.1,202.09922,308.78906)"
             id="g1113">
            <defs
               id="defs1109">
              <path
                 d="m 10.796875,72.90625 h 38.71875 v -8.3125 h -29.6875 V 46.734375 q 2.140625,0.734375 4.28125,1.09375 2.15625,0.359375 4.3125,0.359375 Q 40.625,48.1875 47.75,41.5 54.890625,34.8125 54.890625,23.390625 54.890625,11.625 47.5625,5.09375 40.234375,-1.421875 26.90625,-1.421875 q -4.59375,0 -9.359375,0.78125 -4.75,0.78125 -9.828125,2.34375 V 11.625 q 4.390625,-2.390625 9.078125,-3.5625 4.6875,-1.171875 9.90625,-1.171875 8.453125,0 13.375,4.4375 4.9375,4.4375 4.9375,12.0625 0,7.609375 -4.9375,12.046875 -4.921875,4.453125 -13.375,4.453125 -3.953125,0 -7.890625,-0.875 -3.921875,-0.875 -8.015625,-2.734375 z"
                 id="DejaVuSans-53" />
            </defs>
            <use
               xlink:href="#DejaVuSans-53"
               id="use1111"
               x="0"
               y="0"
               width="100%"
               height="100%" />
          </g>
        </g>
      </g>
      <g
         id="xtick_5">
        <g
           id="line2d_6">
          <path
             d="m 240.99625,290.97147 -2.51092,2.49204"
             style="fill:none;stroke:#000000;stroke-width:0.8;stroke-linecap:square"
             id="path1117" />
        </g>
        <g
           id="text_6">
          <!-- 6 -->
          <g
             transform="matrix(0.1,0,0,-0.1,228.2609,317.6318)"
             id="g1125">
            <defs
               id="defs1121">
              <path
                 d="m 33.015625,40.375 q -6.640625,0 -10.53125,-4.546875 -3.875,-4.53125 -3.875,-12.4375 0,-7.859375 3.875,-12.4375 3.890625,-4.5625 10.53125,-4.5625 6.640625,0 10.515625,4.5625 3.875,4.578125 3.875,12.4375 0,7.90625 -3.875,12.4375 Q 39.65625,40.375 33.015625,40.375 Z M 52.59375,71.296875 V 62.3125 q -3.71875,1.75 -7.5,2.671875 -3.78125,0.9375 -7.5,0.9375 -9.765625,0 -14.921875,-6.59375 -5.140625,-6.59375 -5.875,-19.921875 2.875,4.25 7.21875,6.515625 4.359375,2.265625 9.578125,2.265625 10.984375,0 17.359375,-6.671875 6.375,-6.65625 6.375,-18.125 0,-11.234375 -6.640625,-18.03125 -6.640625,-6.78125 -17.671875,-6.78125 -12.65625,0 -19.34375,9.6875 -6.6875,9.703125 -6.6875,28.109375 0,17.28125 8.203125,27.5625 8.203125,10.28125 22.015625,10.28125 3.71875,0 7.5,-0.734375 3.78125,-0.734375 7.890625,-2.1875 z"
                 id="DejaVuSans-54" />
            </defs>
            <use
               xlink:href="#DejaVuSans-54"
               id="use1123"
               x="0"
               y="0"
               width="100%"
               height="100%" />
          </g>
        </g>
      </g>
    </g>
    <g
       id="axis3d_2">
      <g
         id="line2d_7">
        <path
           d="m 341.58668,200.32785 -93.72006,94.02074"
           style="fill:none;stroke:#000000;stroke-width:0.8;stroke-linecap:square"
           id="path1130" />
      </g>
      <g
         id="text_7"
         transform="translate(8.7809191,-12.414403)">
        <!-- Selfish Index -->
        <g
           transform="matrix(0.07059734,-0.07082384,-0.07082384,-0.07059734,297.19684,296.02748)"
           id="g1168">
          <defs
             id="defs1140">
            <path
               d="m 53.515625,70.515625 v -9.625 q -5.609375,2.6875 -10.59375,4 -4.984375,1.328125 -9.625,1.328125 -8.046875,0 -12.421875,-3.125 -4.375,-3.125 -4.375,-8.890625 0,-4.84375 2.90625,-7.3125 2.90625,-2.453125 11.015625,-3.96875 L 36.375,41.703125 Q 47.40625,39.59375 52.65625,34.296875 57.90625,29 57.90625,20.125 q 0,-10.609375 -7.109375,-16.078125 -7.09375,-5.46875 -20.8125,-5.46875 -5.171875,0 -11.015625,1.171875 Q 13.140625,0.921875 6.890625,3.21875 V 13.375 q 6,-3.359375 11.765625,-5.078125 5.765625,-1.703125 11.328125,-1.703125 8.4375,0 13.03125,3.3125 4.59375,3.328125 4.59375,9.484375 0,5.359375 -3.296875,8.390625 Q 41.015625,30.8125 33.5,32.328125 L 27.484375,33.5 q -11.03125,2.1875 -15.96875,6.875 -4.921875,4.6875 -4.921875,13.046875 0,9.671875 6.8125,15.234375 6.8125,5.5625 18.765625,5.5625 5.140625,0 10.453125,-0.9375 5.328125,-0.921875 10.890625,-2.765625 z"
               id="DejaVuSans-83" />
            <path
               d="M 9.421875,75.984375 H 18.40625 V 0 H 9.421875 Z"
               id="DejaVuSans-108" />
            <path
               d="M 9.421875,54.6875 H 18.40625 V 0 H 9.421875 Z m 0,21.296875 H 18.40625 V 64.59375 H 9.421875 Z"
               id="DejaVuSans-105" />
            <path
               d="M 54.890625,33.015625 V 0 H 45.90625 v 32.71875 q 0,7.765625 -3.03125,11.609375 -3.03125,3.859375 -9.078125,3.859375 -7.28125,0 -11.484375,-4.640625 -4.203125,-4.625 -4.203125,-12.640625 V 0 h -9.03125 v 75.984375 h 9.03125 V 46.1875 q 3.234375,4.9375 7.59375,7.375 4.375,2.4375 10.09375,2.4375 9.421875,0 14.25,-5.828125 4.84375,-5.828125 4.84375,-17.15625 z"
               id="DejaVuSans-104" />
            <path
               d="m 9.8125,72.90625 h 9.859375 V 0 H 9.8125 Z"
               id="DejaVuSans-73" />
            <path
               d="M 54.890625,33.015625 V 0 H 45.90625 v 32.71875 q 0,7.765625 -3.03125,11.609375 -3.03125,3.859375 -9.078125,3.859375 -7.28125,0 -11.484375,-4.640625 -4.203125,-4.625 -4.203125,-12.640625 V 0 h -9.03125 v 54.6875 h 9.03125 v -8.5 q 3.234375,4.9375 7.59375,7.375 4.375,2.4375 10.09375,2.4375 9.421875,0 14.25,-5.828125 4.84375,-5.828125 4.84375,-17.15625 z"
               id="DejaVuSans-110" />
            <path
               d="M 54.890625,54.6875 35.109375,28.078125 55.90625,0 H 45.3125 L 29.390625,21.484375 13.484375,0 H 2.875 L 24.125,28.609375 4.6875,54.6875 h 10.59375 l 14.5,-19.484375 14.5,19.484375 z"
               id="DejaVuSans-120" />
          </defs>
          <use
             xlink:href="#DejaVuSans-83"
             id="use1142"
             x="0"
             y="0"
             width="100%"
             height="100%" />
          <use
             x="63.476562"
             xlink:href="#DejaVuSans-101"
             id="use1144"
             y="0"
             width="100%"
             height="100%" />
          <use
             x="125"
             xlink:href="#DejaVuSans-108"
             id="use1146"
             y="0"
             width="100%"
             height="100%" />
          <use
             x="152.7832"
             xlink:href="#DejaVuSans-102"
             id="use1148"
             y="0"
             width="100%"
             height="100%" />
          <use
             x="187.98828"
             xlink:href="#DejaVuSans-105"
             id="use1150"
             y="0"
             width="100%"
             height="100%" />
          <use
             x="215.77148"
             xlink:href="#DejaVuSans-115"
             id="use1152"
             y="0"
             width="100%"
             height="100%" />
          <use
             x="267.87109"
             xlink:href="#DejaVuSans-104"
             id="use1154"
             y="0"
             width="100%"
             height="100%" />
          <use
             x="331.25"
             xlink:href="#DejaVuSans-32"
             id="use1156"
             y="0"
             width="100%"
             height="100%" />
          <use
             x="363.03711"
             xlink:href="#DejaVuSans-73"
             id="use1158"
             y="0"
             width="100%"
             height="100%" />
          <use
             x="392.5293"
             xlink:href="#DejaVuSans-110"
             id="use1160"
             y="0"
             width="100%"
             height="100%" />
          <use
             x="455.9082"
             xlink:href="#DejaVuSans-100"
             id="use1162"
             y="0"
             width="100%"
             height="100%" />
          <use
             x="519.38477"
             xlink:href="#DejaVuSans-101"
             id="use1164"
             y="0"
             width="100%"
             height="100%" />
          <use
             x="579.1582"
             xlink:href="#DejaVuSans-120"
             id="use1166"
             y="0"
             width="100%"
             height="100%" />
        </g>
      </g>
      <g
         id="Line3DCollection_2">
        <path
           d="m 133.51132,132.56031 4.92171,117.19256 116.00399,38.00424"
           style="fill:none;stroke:#b0b0b0;stroke-width:0.8"
           id="path1171" />
        <path
           d="m 150.18004,120.16504 4.08758,116.008 114.85178,36.85458"
           style="fill:none;stroke:#b0b0b0;stroke-width:0.8"
           id="path1173" />
        <path
           d="m 166.33512,108.15172 3.30109,114.84113 113.71598,35.75632"
           style="fill:none;stroke:#b0b0b0;stroke-width:0.8"
           id="path1175" />
        <path
           d="m 181.99995,96.502971 2.55912,113.691949 112.59666,34.70643"
           style="fill:none;stroke:#b0b0b0;stroke-width:0.8"
           id="path1177" />
        <path
           d="m 197.19651,85.20244 1.85882,112.56041 111.4938,33.70212"
           style="fill:none;stroke:#b0b0b0;stroke-width:0.8"
           id="path1179" />
        <path
           d="m 211.94547,74.234746 1.19754,111.446424 110.40742,32.74079"
           style="fill:none;stroke:#b0b0b0;stroke-width:0.8"
           id="path1181" />
        <path
           d="m 226.26634,63.585396 0.5728,110.349894 109.33744,31.82001"
           style="fill:none;stroke:#b0b0b0;stroke-width:0.8"
           id="path1183" />
      </g>
      <g
         id="xtick_6">
        <g
           id="line2d_8">
          <path
             d="m 253.47052,287.44047 2.90143,0.95055"
             style="fill:none;stroke:#000000;stroke-width:0.8;stroke-linecap:square"
             id="path1186" />
        </g>
        <g
           id="text_8"
           transform="translate(13.394287,-12.153053)">
          <!-- unselfish -->
          <g
             transform="matrix(0.1,0,0,-0.1,242.06985,308.14251)"
             id="g1207">
            <use
               xlink:href="#DejaVuSans-117"
               id="use1189"
               x="0"
               y="0"
               width="100%"
               height="100%" />
            <use
               x="63.378906"
               xlink:href="#DejaVuSans-110"
               id="use1191"
               y="0"
               width="100%"
               height="100%" />
            <use
               x="126.75781"
               xlink:href="#DejaVuSans-115"
               id="use1193"
               y="0"
               width="100%"
               height="100%" />
            <use
               x="178.85742"
               xlink:href="#DejaVuSans-101"
               id="use1195"
               y="0"
               width="100%"
               height="100%" />
            <use
               x="240.38086"
               xlink:href="#DejaVuSans-108"
               id="use1197"
               y="0"
               width="100%"
               height="100%" />
            <use
               x="268.16406"
               xlink:href="#DejaVuSans-102"
               id="use1199"
               y="0"
               width="100%"
               height="100%" />
            <use
               x="303.36914"
               xlink:href="#DejaVuSans-105"
               id="use1201"
               y="0"
               width="100%"
               height="100%" />
            <use
               x="331.15234"
               xlink:href="#DejaVuSans-115"
               id="use1203"
               y="0"
               width="100%"
               height="100%" />
            <use
               x="383.25195"
               xlink:href="#DejaVuSans-104"
               id="use1205"
               y="0"
               width="100%"
               height="100%" />
          </g>
        </g>
      </g>
      <g
         id="xtick_7">
        <g
           id="line2d_9">
          <path
             d="m 268.1631,272.72075 2.8708,0.92121"
             style="fill:none;stroke:#000000;stroke-width:0.8;stroke-linecap:square"
             id="path1211" />
        </g>
      </g>
      <g
         id="xtick_8">
        <g
           id="line2d_10">
          <path
             d="m 282.40591,258.45163 2.84068,0.89321"
             style="fill:none;stroke:#000000;stroke-width:0.8;stroke-linecap:square"
             id="path1215" />
        </g>
      </g>
      <g
         id="xtick_9">
        <g
           id="line2d_11">
          <path
             d="m 296.21931,244.61271 2.81105,0.86647"
             style="fill:none;stroke:#000000;stroke-width:0.8;stroke-linecap:square"
             id="path1219" />
        </g>
      </g>
      <g
         id="xtick_10">
        <g
           id="line2d_12">
          <path
             d="m 309.62241,231.18484 2.78192,0.84092"
             style="fill:none;stroke:#000000;stroke-width:0.8;stroke-linecap:square"
             id="path1223" />
        </g>
      </g>
      <g
         id="xtick_11">
        <g
           id="line2d_13">
          <path
             d="m 322.63324,218.14998 2.75327,0.81647"
             style="fill:none;stroke:#000000;stroke-width:0.8;stroke-linecap:square"
             id="path1227" />
        </g>
      </g>
      <g
         id="xtick_12"
         transform="translate(0.90781,0.2642)">
        <g
           id="line2d_14">
          <path
             d="m 335.26877,205.4911 2.72511,0.79308"
             style="fill:none;stroke:#000000;stroke-width:0.8;stroke-linecap:square"
             id="path1231" />
        </g>
        <g
           id="text_9"
           transform="translate(12.111613,-10.597661)">
          <!-- selfish -->
          <g
             transform="matrix(0.1,0,0,-0.1,329.24485,225.07453)"
             id="g1248">
            <use
               xlink:href="#DejaVuSans-115"
               id="use1234"
               x="0"
               y="0"
               width="100%"
               height="100%" />
            <use
               x="52.099609"
               xlink:href="#DejaVuSans-101"
               id="use1236"
               y="0"
               width="100%"
               height="100%" />
            <use
               x="113.62305"
               xlink:href="#DejaVuSans-108"
               id="use1238"
               y="0"
               width="100%"
               height="100%" />
            <use
               x="141.40625"
               xlink:href="#DejaVuSans-102"
               id="use1240"
               y="0"
               width="100%"
               height="100%" />
            <use
               x="176.61133"
               xlink:href="#DejaVuSans-105"
               id="use1242"
               y="0"
               width="100%"
               height="100%" />
            <use
               x="204.39453"
               xlink:href="#DejaVuSans-115"
               id="use1244"
               y="0"
               width="100%"
               height="100%" />
            <use
               x="256.49414"
               xlink:href="#DejaVuSans-104"
               id="use1246"
               y="0"
               width="100%"
               height="100%" />
          </g>
        </g>
      </g>
    </g>
    <g
       id="axis3d_3">
      <g
         id="line2d_15">
        <path
           d="M 341.58668,200.32785 346.25187,87.532754"
           style="fill:none;stroke:#000000;stroke-width:0.8;stroke-linecap:square"
           id="path1253" />
      </g>
      <g
         id="text_10">
        <!-- Mean Episode Kill -->
        <g
           transform="matrix(0.00413246,-0.09991458,-0.09991458,-0.00413246,380.80217,180.25698)"
           id="g1296">
          <defs
             id="defs1260">
            <path
               d="M 9.8125,72.90625 H 24.515625 L 43.109375,23.296875 61.8125,72.90625 H 76.515625 V 0 h -9.625 v 64.015625 l -18.796875,-50 H 38.1875 l -18.796875,50 V 0 H 9.8125 Z"
               id="DejaVuSans-77" />
            <path
               d="m 9.8125,72.90625 h 46.09375 v -8.3125 H 19.671875 V 43.015625 h 34.71875 V 34.71875 H 19.671875 V 8.296875 H 56.78125 V 0 H 9.8125 Z"
               id="DejaVuSans-69" />
            <path
               d="m 18.109375,8.203125 v -29 H 9.078125 V 54.6875 h 9.03125 v -8.296875 q 2.84375,4.875 7.15625,7.234375 Q 29.59375,56 35.59375,56 q 9.96875,0 16.1875,-7.90625 6.234375,-7.90625 6.234375,-20.796875 0,-12.890625 -6.234375,-20.8125 -6.21875,-7.90625 -16.1875,-7.90625 -6,0 -10.328125,2.375 -4.3125,2.375 -7.15625,7.25 z M 48.6875,27.296875 q 0,9.90625 -4.078125,15.546875 -4.078125,5.640625 -11.203125,5.640625 -7.140625,0 -11.21875,-5.640625 -4.078125,-5.640625 -4.078125,-15.546875 0,-9.90625 4.078125,-15.546875 4.078125,-5.640625 11.21875,-5.640625 7.125,0 11.203125,5.640625 4.078125,5.640625 4.078125,15.546875 z"
               id="DejaVuSans-112" />
            <path
               d="m 9.8125,72.90625 h 9.859375 v -30.8125 l 32.71875,30.8125 H 65.09375 L 28.90625,38.921875 67.671875,0 H 54.6875 L 19.671875,35.109375 V 0 H 9.8125 Z"
               id="DejaVuSans-75" />
          </defs>
          <use
             xlink:href="#DejaVuSans-77"
             id="use1262"
             x="0"
             y="0"
             width="100%"
             height="100%" />
          <use
             x="86.279297"
             xlink:href="#DejaVuSans-101"
             id="use1264"
             y="0"
             width="100%"
             height="100%" />
          <use
             x="147.80273"
             xlink:href="#DejaVuSans-97"
             id="use1266"
             y="0"
             width="100%"
             height="100%" />
          <use
             x="209.08203"
             xlink:href="#DejaVuSans-110"
             id="use1268"
             y="0"
             width="100%"
             height="100%" />
          <use
             x="272.46094"
             xlink:href="#DejaVuSans-32"
             id="use1270"
             y="0"
             width="100%"
             height="100%" />
          <use
             x="304.24805"
             xlink:href="#DejaVuSans-69"
             id="use1272"
             y="0"
             width="100%"
             height="100%" />
          <use
             x="367.43164"
             xlink:href="#DejaVuSans-112"
             id="use1274"
             y="0"
             width="100%"
             height="100%" />
          <use
             x="430.9082"
             xlink:href="#DejaVuSans-105"
             id="use1276"
             y="0"
             width="100%"
             height="100%" />
          <use
             x="458.69141"
             xlink:href="#DejaVuSans-115"
             id="use1278"
             y="0"
             width="100%"
             height="100%" />
          <use
             x="510.79102"
             xlink:href="#DejaVuSans-111"
             id="use1280"
             y="0"
             width="100%"
             height="100%" />
          <use
             x="571.97266"
             xlink:href="#DejaVuSans-100"
             id="use1282"
             y="0"
             width="100%"
             height="100%" />
          <use
             x="635.44922"
             xlink:href="#DejaVuSans-101"
             id="use1284"
             y="0"
             width="100%"
             height="100%" />
          <use
             x="696.97266"
             xlink:href="#DejaVuSans-32"
             id="use1286"
             y="0"
             width="100%"
             height="100%" />
          <use
             x="728.75977"
             xlink:href="#DejaVuSans-75"
             id="use1288"
             y="0"
             width="100%"
             height="100%" />
          <use
             x="794.33594"
             xlink:href="#DejaVuSans-105"
             id="use1290"
             y="0"
             width="100%"
             height="100%" />
          <use
             x="822.11914"
             xlink:href="#DejaVuSans-108"
             id="use1292"
             y="0"
             width="100%"
             height="100%" />
          <use
             x="849.90234"
             xlink:href="#DejaVuSans-108"
             id="use1294"
             y="0"
             width="100%"
             height="100%" />
        </g>
      </g>
      <g
         id="Line3DCollection_3">
        <path
           d="M 342.15012,186.70496 232.67469,155.60868 130.71467,241.6441"
           style="fill:none;stroke:#b0b0b0;stroke-width:0.8"
           id="path1299" />
        <path
           d="M 342.79628,171.0821 232.63165,140.3744 129.98159,225.36954"
           style="fill:none;stroke:#b0b0b0;stroke-width:0.8"
           id="path1301" />
        <path
           d="M 343.45065,155.26081 232.58809,124.95383 129.23859,208.87467"
           style="fill:none;stroke:#b0b0b0;stroke-width:0.8"
           id="path1303" />
        <path
           d="M 344.11338,139.23729 232.54399,109.34352 128.48545,192.155"
           style="fill:none;stroke:#b0b0b0;stroke-width:0.8"
           id="path1305" />
        <path
           d="M 344.78464,123.00763 232.49935,93.539951 127.72199,175.20588"
           style="fill:none;stroke:#b0b0b0;stroke-width:0.8"
           id="path1307" />
        <path
           d="M 345.46458,106.56784 232.45415,77.539514 126.94797,158.02257"
           style="fill:none;stroke:#b0b0b0;stroke-width:0.8"
           id="path1309" />
        <path
           d="M 346.15339,89.913793 232.40838,61.338506 126.16319,140.60017"
           style="fill:none;stroke:#b0b0b0;stroke-width:0.8"
           id="path1311" />
      </g>
      <g
         id="xtick_13">
        <g
           id="line2d_16">
          <path
             d="m 341.24119,186.44678 2.72847,0.77501"
             style="fill:none;stroke:#000000;stroke-width:0.8;stroke-linecap:square"
             id="path1314" />
        </g>
        <g
           id="text_11">
          <!-- 2 -->
          <g
             transform="matrix(0.1,0,0,-0.1,355.35982,190.04439)"
             id="g1319">
            <use
               xlink:href="#DejaVuSans-50"
               id="use1317"
               x="0"
               y="0"
               width="100%"
               height="100%" />
          </g>
        </g>
      </g>
      <g
         id="xtick_14">
        <g
           id="line2d_17">
          <path
             d="m 341.88141,170.82709 2.74629,0.76551"
             style="fill:none;stroke:#000000;stroke-width:0.8;stroke-linecap:square"
             id="path1323" />
        </g>
        <g
           id="text_12">
          <!-- 4 -->
          <g
             transform="matrix(0.1,0,0,-0.1,356.10562,174.47391)"
             id="g1328">
            <use
               xlink:href="#DejaVuSans-52"
               id="use1326"
               x="0"
               y="0"
               width="100%"
               height="100%" />
          </g>
        </g>
      </g>
      <g
         id="xtick_15">
        <g
           id="line2d_18">
          <path
             d="m 342.52977,155.00907 2.76434,0.7557"
             style="fill:none;stroke:#000000;stroke-width:0.8;stroke-linecap:square"
             id="path1332" />
        </g>
        <g
           id="text_13">
          <!-- 6 -->
          <g
             transform="matrix(0.1,0,0,-0.1,356.86085,158.70667)"
             id="g1337">
            <use
               xlink:href="#DejaVuSans-54"
               id="use1335"
               x="0"
               y="0"
               width="100%"
               height="100%" />
          </g>
        </g>
      </g>
      <g
         id="xtick_16">
        <g
           id="line2d_19">
          <path
             d="m 343.18641,138.98892 2.78264,0.74558"
             style="fill:none;stroke:#000000;stroke-width:0.8;stroke-linecap:square"
             id="path1341" />
        </g>
        <g
           id="text_14">
          <!-- 8 -->
          <g
             transform="matrix(0.1,0,0,-0.1,357.62567,142.73893)"
             id="g1349">
            <defs
               id="defs1345">
              <path
                 d="m 31.78125,34.625 q -7.03125,0 -11.0625,-3.765625 -4.015625,-3.765625 -4.015625,-10.34375 0,-6.59375 4.015625,-10.359375 4.03125,-3.765625 11.0625,-3.765625 7.03125,0 11.078125,3.78125 4.0625,3.796875 4.0625,10.34375 0,6.578125 -4.03125,10.34375 Q 38.875,34.625 31.78125,34.625 Z m -9.859375,4.1875 Q 15.578125,40.375 12.03125,44.71875 8.5,49.078125 8.5,55.328125 q 0,8.734375 6.21875,13.8125 6.234375,5.078125 17.0625,5.078125 10.890625,0 17.09375,-5.078125 6.203125,-5.078125 6.203125,-13.8125 0,-6.25 -3.546875,-10.609375 Q 48,40.375 41.703125,38.8125 q 7.125,-1.65625 11.09375,-6.5 3.984375,-4.828125 3.984375,-11.796875 0,-10.609375 -6.46875,-16.28125 -6.46875,-5.65625 -18.53125,-5.65625 -12.046875,0 -18.53125,5.65625 -6.46875,5.671875 -6.46875,16.28125 0,6.96875 4,11.796875 4.015625,4.84375 11.140625,6.5 z M 18.3125,54.390625 q 0,-5.65625 3.53125,-8.828125 3.546875,-3.171875 9.9375,-3.171875 6.359375,0 9.9375,3.171875 3.59375,3.171875 3.59375,8.828125 0,5.671875 -3.59375,8.84375 -3.578125,3.171875 -9.9375,3.171875 -6.390625,0 -9.9375,-3.171875 Q 18.3125,60.0625 18.3125,54.390625 Z"
                 id="DejaVuSans-56" />
            </defs>
            <use
               xlink:href="#DejaVuSans-56"
               id="use1347"
               x="0"
               y="0"
               width="100%"
               height="100%" />
          </g>
        </g>
      </g>
      <g
         id="xtick_17">
        <g
           id="line2d_20">
          <path
             d="m 343.8515,122.76274 2.80117,0.73513"
             style="fill:none;stroke:#000000;stroke-width:0.8;stroke-linecap:square"
             id="path1353" />
        </g>
        <g
           id="text_15">
          <!-- 10 -->
          <g
             transform="matrix(0.1,0,0,-0.1,355.21904,126.56683)"
             id="g1364">
            <defs
               id="defs1358">
              <path
                 d="m 12.40625,8.296875 h 16.109375 v 55.625 L 10.984375,60.40625 v 8.984375 l 17.4375,3.515625 H 38.28125 V 8.296875 H 54.390625 V 0 H 12.40625 Z"
                 id="DejaVuSans-49" />
              <path
                 d="m 31.78125,66.40625 q -7.609375,0 -11.453125,-7.5 Q 16.5,51.421875 16.5,36.375 q 0,-14.984375 3.828125,-22.484375 3.84375,-7.5 11.453125,-7.5 7.671875,0 11.5,7.5 3.84375,7.5 3.84375,22.484375 0,15.046875 -3.84375,22.53125 -3.828125,7.5 -11.5,7.5 z m 0,7.8125 q 12.265625,0 18.734375,-9.703125 6.46875,-9.6875 6.46875,-28.140625 0,-18.40625 -6.46875,-28.109375 -6.46875,-9.6875 -18.734375,-9.6875 -12.25,0 -18.71875,9.6875 Q 6.59375,17.96875 6.59375,36.375 q 0,18.453125 6.46875,28.140625 6.46875,9.703125 18.71875,9.703125 z"
                 id="DejaVuSans-48" />
            </defs>
            <use
               xlink:href="#DejaVuSans-49"
               id="use1360"
               x="0"
               y="0"
               width="100%"
               height="100%" />
            <use
               x="63.623047"
               xlink:href="#DejaVuSans-48"
               id="use1362"
               y="0"
               width="100%"
               height="100%" />
          </g>
        </g>
      </g>
      <g
         id="xtick_18">
        <g
           id="line2d_21">
          <path
             d="m 344.52519,106.32654 2.81996,0.72435"
             style="fill:none;stroke:#000000;stroke-width:0.8;stroke-linecap:square"
             id="path1368" />
        </g>
        <g
           id="text_16">
          <!-- 12 -->
          <g
             transform="matrix(0.1,0,0,-0.1,356.00363,110.18642)"
             id="g1375">
            <use
               xlink:href="#DejaVuSans-49"
               id="use1371"
               x="0"
               y="0"
               width="100%"
               height="100%" />
            <use
               x="63.623047"
               xlink:href="#DejaVuSans-50"
               id="use1373"
               y="0"
               width="100%"
               height="100%" />
          </g>
        </g>
      </g>
      <g
         id="xtick_19">
        <g
           id="line2d_22">
          <path
             d="m 345.20766,89.676204 2.83899,0.713218"
             style="fill:none;stroke:#000000;stroke-width:0.8;stroke-linecap:square"
             id="path1379" />
        </g>
        <g
           id="text_17">
          <!-- 14 -->
          <g
             transform="matrix(0.1,0,0,-0.1,356.7984,93.593652)"
             id="g1386">
            <use
               xlink:href="#DejaVuSans-49"
               id="use1382"
               x="0"
               y="0"
               width="100%"
               height="100%" />
            <use
               x="63.623047"
               xlink:href="#DejaVuSans-52"
               id="use1384"
               y="0"
               width="100%"
               height="100%" />
          </g>
        </g>
      </g>
    </g>
    <g
       id="axes_1">
      <g
         id="Poly3DCollection_1">
        <path
           clip-path="url(#p3ee5c8f805)"
           d="m 233.43254,126.03322 -13.90953,11.74724 23.99359,-11.19108 z"
           style="fill:#1fa187"
           id="path1391" />
        <path
           clip-path="url(#p3ee5c8f805)"
           d="m 243.5166,126.58938 13.80239,-14.92417 -23.88645,14.36801 z"
           style="fill:#31b57b"
           id="path1393" />
        <path
           clip-path="url(#p3ee5c8f805)"
           d="m 219.52301,137.78046 -14.31368,11.92615 38.30727,-23.11723 z"
           style="fill:#1fa187"
           id="path1395" />
        <path
           clip-path="url(#p3ee5c8f805)"
           d="m 257.31899,111.66521 -13.80239,14.92417 24.61921,0.2859 z"
           style="fill:#58c765"
           id="path1397" />
        <path
           clip-path="url(#p3ee5c8f805)"
           d="m 281.97473,99.027427 -24.65574,12.637783 10.81682,15.21007 z"
           style="fill:#8bd646"
           id="path1399" />
        <path
           clip-path="url(#p3ee5c8f805)"
           d="m 243.5166,126.58938 -38.30727,23.11723 24.13556,-7.75171 z"
           style="fill:#27ad81"
           id="path1401" />
        <path
           clip-path="url(#p3ee5c8f805)"
           d="m 268.13581,126.87528 -24.61921,-0.2859 -14.17171,15.36552 z"
           style="fill:#4ac16d"
           id="path1403" />
        <path
           clip-path="url(#p3ee5c8f805)"
           d="M 268.13581,126.87528 307.3084,90.67423 281.97473,99.027427 Z"
           style="fill:#dde318"
           id="path1405" />
        <path
           clip-path="url(#p3ee5c8f805)"
           d="m 190.52506,164.57235 24.32884,-0.33662 -9.64457,-14.52912 z"
           style="fill:#20928c"
           id="path1407" />
        <path
           clip-path="url(#p3ee5c8f805)"
           d="m 205.20933,149.70661 9.64457,14.52912 14.49099,-22.28083 z"
           style="fill:#1fa187"
           id="path1409" />
        <path
           clip-path="url(#p3ee5c8f805)"
           d="m 229.34489,141.9549 24.75935,6.34179 14.03157,-21.42141 z"
           style="fill:#46c06f"
           id="path1411" />
        <path
           clip-path="url(#p3ee5c8f805)"
           d="m 268.13581,126.87528 25.03852,6.55596 14.13407,-42.75701 z"
           style="fill:#b5de2b"
           id="path1413" />
        <path
           clip-path="url(#p3ee5c8f805)"
           d="m 214.8539,164.23573 39.25034,-15.93904 -24.75935,-6.34179 z"
           style="fill:#29af7f"
           id="path1415" />
        <path
           clip-path="url(#p3ee5c8f805)"
           d="m 279.26064,157.67344 13.91369,-24.2422 -25.03852,-6.55596 z"
           style="fill:#54c568"
           id="path1417" />
        <path
           clip-path="url(#p3ee5c8f805)"
           d="m 307.3084,90.67423 -14.13407,42.75701 25.31071,12.02727 z"
           style="fill:#aadc32"
           id="path1419" />
        <path
           clip-path="url(#p3ee5c8f805)"
           d="m 268.13581,126.87528 -14.03157,21.42141 25.1564,9.37675 z"
           style="fill:#42be71"
           id="path1421" />
        <path
           clip-path="url(#p3ee5c8f805)"
           d="M 332.98862,92.923181 307.3084,90.67423 318.48504,145.45851 Z"
           style="fill:#fde725"
           id="path1423" />
        <path
           clip-path="url(#p3ee5c8f805)"
           d="m 200.08408,189.57391 14.76982,-25.33818 -24.32884,0.33662 z"
           style="fill:#228b8d"
           id="path1425" />
        <path
           clip-path="url(#p3ee5c8f805)"
           d="m 190.52506,164.57235 -14.97473,19.78452 24.53375,5.21704 z"
           style="fill:#277e8e"
           id="path1427" />
        <path
           clip-path="url(#p3ee5c8f805)"
           d="m 318.48504,145.45851 -25.31071,-12.02727 -13.91369,24.2422 z"
           style="fill:#4cc26c"
           id="path1429" />
        <path
           clip-path="url(#p3ee5c8f805)"
           d="m 239.75611,169.65056 14.34813,-21.35387 -39.25034,15.93904 z"
           style="fill:#22a884"
           id="path1431" />
        <path
           clip-path="url(#p3ee5c8f805)"
           d="m 239.75611,169.65056 -24.90221,-5.41483 -14.76982,25.33818 z"
           style="fill:#20938c"
           id="path1433" />
        <path
           clip-path="url(#p3ee5c8f805)"
           d="m 279.26064,157.67344 -25.1564,-9.37675 10.95202,34.44591 z"
           style="fill:#24aa83"
           id="path1435" />
        <path
           clip-path="url(#p3ee5c8f805)"
           d="m 200.08408,189.57391 -24.53375,-5.21704 -15.23143,23.59887 z"
           style="fill:#2e6e8e"
           id="path1437" />
        <path
           clip-path="url(#p3ee5c8f805)"
           d="m 279.26064,157.67344 25.56366,9.02088 13.66074,-21.23581 z"
           style="fill:#34b679"
           id="path1439" />
        <path
           clip-path="url(#p3ee5c8f805)"
           d="m 265.05626,182.7426 -10.95202,-34.44591 -14.34813,21.35387 z"
           style="fill:#20a486"
           id="path1441" />
        <path
           clip-path="url(#p3ee5c8f805)"
           d="m 265.05626,182.7426 39.76804,-16.04828 -25.56366,-9.02088 z"
           style="fill:#21a685"
           id="path1443" />
        <path
           clip-path="url(#p3ee5c8f805)"
           d="m 200.08408,189.57391 25.06025,13.75902 14.61178,-33.68237 z"
           style="fill:#26828e"
           id="path1445" />
        <path
           clip-path="url(#p3ee5c8f805)"
           d="m 200.08408,189.57391 -39.76518,18.38183 24.75087,9.8673 z"
           style="fill:#33628d"
           id="path1447" />
        <path
           clip-path="url(#p3ee5c8f805)"
           d="M 250.51812,217.69064 265.05626,182.7426 239.75611,169.65056 Z"
           style="fill:#25848e"
           id="path1449" />
        <path
           clip-path="url(#p3ee5c8f805)"
           d="m 239.75611,169.65056 -14.61178,33.68237 25.37379,14.35771 z"
           style="fill:#2a778e"
           id="path1451" />
        <path
           clip-path="url(#p3ee5c8f805)"
           d="M 290.63363,198.53245 304.8243,166.69432 265.05626,182.7426 Z"
           style="fill:#1f948c"
           id="path1453" />
        <path
           clip-path="url(#p3ee5c8f805)"
           d="m 210.20738,227.15174 14.93695,-23.81881 -25.06025,-13.75902 z"
           style="fill:#31678e"
           id="path1455" />
        <path
           clip-path="url(#p3ee5c8f805)"
           d="m 185.06977,217.82304 25.13761,9.3287 -10.1233,-37.57783 z"
           style="fill:#355e8d"
           id="path1457" />
        <path
           clip-path="url(#p3ee5c8f805)"
           d="m 160.3189,207.95574 9.55565,41.91372 15.19522,-32.04642 z"
           style="fill:#423f85"
           id="path1459" />
        <path
           clip-path="url(#p3ee5c8f805)"
           d="M 290.63363,198.53245 265.05626,182.7426 250.51812,217.69064 Z"
           style="fill:#2a788e"
           id="path1461" />
        <path
           clip-path="url(#p3ee5c8f805)"
           d="m 144.76966,232.4479 25.10489,17.42156 -9.55565,-41.91372 z"
           style="fill:#453581"
           id="path1463" />
        <path
           clip-path="url(#p3ee5c8f805)"
           d="m 250.51812,217.69064 -25.37379,-14.35771 -14.93695,23.81881 z"
           style="fill:#375a8c"
           id="path1465" />
        <path
           clip-path="url(#p3ee5c8f805)"
           d="m 169.87455,249.86946 40.33283,-22.71772 -25.13761,-9.3287 z"
           style="fill:#443b84"
           id="path1467" />
        <path
           clip-path="url(#p3ee5c8f805)"
           d="m 250.51812,217.69064 25.78453,7.97665 14.33098,-27.13484 z"
           style="fill:#32648e"
           id="path1469" />
        <path
           clip-path="url(#p3ee5c8f805)"
           d="m 250.51812,217.69064 -40.31074,9.4611 25.57275,19.09979 z"
           style="fill:#414487"
           id="path1471" />
        <path
           clip-path="url(#p3ee5c8f805)"
           d="m 195.09168,259.97159 15.1157,-32.81985 -40.33283,22.71772 z"
           style="fill:#482475"
           id="path1473" />
        <path
           clip-path="url(#p3ee5c8f805)"
           d="m 261.65611,256.71801 14.64654,-31.05072 -25.78453,-7.97665 z"
           style="fill:#404588"
           id="path1475" />
        <path
           clip-path="url(#p3ee5c8f805)"
           d="m 235.78013,246.25153 25.87598,10.46648 -11.13799,-39.02737 z"
           style="fill:#453581"
           id="path1477" />
        <path
           clip-path="url(#p3ee5c8f805)"
           d="m 235.78013,246.25153 -25.57275,-19.09979 10.54184,46.32197 z"
           style="fill:#482475"
           id="path1479" />
        <path
           clip-path="url(#p3ee5c8f805)"
           d="m 220.74922,273.47371 -10.54184,-46.32197 -15.1157,32.81985 z"
           style="fill:#481b6d"
           id="path1481" />
        <path
           clip-path="url(#p3ee5c8f805)"
           d="m 235.78013,246.25153 -15.03091,27.22218 40.90689,-16.7557 z"
           style="fill:#481467"
           id="path1483" />
        <path
           clip-path="url(#p3ee5c8f805)"
           d="m 261.65611,256.71801 -40.90689,16.7557 26.02435,9.48 z"
           style="fill:#440154"
           id="path1485" />
      </g>
      <g
         id="text_18">
        <!-- Mean Episode Kill with 75 steps/eps -->
        <g
           transform="matrix(0.12,0,0,-0.12,128.66156,35.472)"
           id="g1563">
          <defs
             id="defs1491">
            <path
               d="M 4.203125,54.6875 H 13.1875 L 24.421875,12.015625 35.59375,54.6875 H 46.1875 L 57.421875,12.015625 68.609375,54.6875 H 77.59375 L 63.28125,0 H 52.6875 L 40.921875,44.828125 29.109375,0 H 18.5 Z"
               id="DejaVuSans-119" />
            <path
               d="m 8.203125,72.90625 h 46.875 V 68.703125 L 28.609375,0 H 18.3125 L 43.21875,64.59375 H 8.203125 Z"
               id="DejaVuSans-55" />
            <path
               d="M 25.390625,72.90625 H 33.6875 L 8.296875,-9.28125 H 0 Z"
               id="DejaVuSans-47" />
          </defs>
          <use
             xlink:href="#DejaVuSans-77"
             id="use1493"
             x="0"
             y="0"
             width="100%"
             height="100%" />
          <use
             x="86.279297"
             xlink:href="#DejaVuSans-101"
             id="use1495"
             y="0"
             width="100%"
             height="100%" />
          <use
             x="147.80273"
             xlink:href="#DejaVuSans-97"
             id="use1497"
             y="0"
             width="100%"
             height="100%" />
          <use
             x="209.08203"
             xlink:href="#DejaVuSans-110"
             id="use1499"
             y="0"
             width="100%"
             height="100%" />
          <use
             x="272.46094"
             xlink:href="#DejaVuSans-32"
             id="use1501"
             y="0"
             width="100%"
             height="100%" />
          <use
             x="304.24805"
             xlink:href="#DejaVuSans-69"
             id="use1503"
             y="0"
             width="100%"
             height="100%" />
          <use
             x="367.43164"
             xlink:href="#DejaVuSans-112"
             id="use1505"
             y="0"
             width="100%"
             height="100%" />
          <use
             x="430.9082"
             xlink:href="#DejaVuSans-105"
             id="use1507"
             y="0"
             width="100%"
             height="100%" />
          <use
             x="458.69141"
             xlink:href="#DejaVuSans-115"
             id="use1509"
             y="0"
             width="100%"
             height="100%" />
          <use
             x="510.79102"
             xlink:href="#DejaVuSans-111"
             id="use1511"
             y="0"
             width="100%"
             height="100%" />
          <use
             x="571.97266"
             xlink:href="#DejaVuSans-100"
             id="use1513"
             y="0"
             width="100%"
             height="100%" />
          <use
             x="635.44922"
             xlink:href="#DejaVuSans-101"
             id="use1515"
             y="0"
             width="100%"
             height="100%" />
          <use
             x="696.97266"
             xlink:href="#DejaVuSans-32"
             id="use1517"
             y="0"
             width="100%"
             height="100%" />
          <use
             x="728.75977"
             xlink:href="#DejaVuSans-75"
             id="use1519"
             y="0"
             width="100%"
             height="100%" />
          <use
             x="794.33594"
             xlink:href="#DejaVuSans-105"
             id="use1521"
             y="0"
             width="100%"
             height="100%" />
          <use
             x="822.11914"
             xlink:href="#DejaVuSans-108"
             id="use1523"
             y="0"
             width="100%"
             height="100%" />
          <use
             x="849.90234"
             xlink:href="#DejaVuSans-108"
             id="use1525"
             y="0"
             width="100%"
             height="100%" />
          <use
             x="877.68555"
             xlink:href="#DejaVuSans-32"
             id="use1527"
             y="0"
             width="100%"
             height="100%" />
          <use
             x="909.47266"
             xlink:href="#DejaVuSans-119"
             id="use1529"
             y="0"
             width="100%"
             height="100%" />
          <use
             x="991.25977"
             xlink:href="#DejaVuSans-105"
             id="use1531"
             y="0"
             width="100%"
             height="100%" />
          <use
             x="1019.043"
             xlink:href="#DejaVuSans-116"
             id="use1533"
             y="0"
             width="100%"
             height="100%" />
          <use
             x="1058.252"
             xlink:href="#DejaVuSans-104"
             id="use1535"
             y="0"
             width="100%"
             height="100%" />
          <use
             x="1121.6309"
             xlink:href="#DejaVuSans-32"
             id="use1537"
             y="0"
             width="100%"
             height="100%" />
          <use
             x="1153.418"
             xlink:href="#DejaVuSans-55"
             id="use1539"
             y="0"
             width="100%"
             height="100%" />
          <use
             x="1217.041"
             xlink:href="#DejaVuSans-53"
             id="use1541"
             y="0"
             width="100%"
             height="100%" />
          <use
             x="1280.6641"
             xlink:href="#DejaVuSans-32"
             id="use1543"
             y="0"
             width="100%"
             height="100%" />
          <use
             x="1312.4512"
             xlink:href="#DejaVuSans-115"
             id="use1545"
             y="0"
             width="100%"
             height="100%" />
          <use
             x="1364.5508"
             xlink:href="#DejaVuSans-116"
             id="use1547"
             y="0"
             width="100%"
             height="100%" />
          <use
             x="1403.7598"
             xlink:href="#DejaVuSans-101"
             id="use1549"
             y="0"
             width="100%"
             height="100%" />
          <use
             x="1465.2832"
             xlink:href="#DejaVuSans-112"
             id="use1551"
             y="0"
             width="100%"
             height="100%" />
          <use
             x="1528.7598"
             xlink:href="#DejaVuSans-115"
             id="use1553"
             y="0"
             width="100%"
             height="100%" />
          <use
             x="1580.8594"
             xlink:href="#DejaVuSans-47"
             id="use1555"
             y="0"
             width="100%"
             height="100%" />
          <use
             x="1614.5508"
             xlink:href="#DejaVuSans-101"
             id="use1557"
             y="0"
             width="100%"
             height="100%" />
          <use
             x="1676.0742"
             xlink:href="#DejaVuSans-112"
             id="use1559"
             y="0"
             width="100%"
             height="100%" />
          <use
             x="1739.5508"
             xlink:href="#DejaVuSans-115"
             id="use1561"
             y="0"
             width="100%"
             height="100%" />
        </g>
      </g>
    </g>
  </g>
  <g
     inkscape:groupmode="layer"
     id="layer2"
     inkscape:label="Layer 2"
     style="display:inline">
    <path
       style="fill:none;stroke:#f50000;stroke-width:1.5;stroke-linecap:butt;stroke-linejoin:miter;stroke-miterlimit:4;stroke-dasharray:none;stroke-opacity:1"
       d="m 144.76966,232.44791 25.10489,17.42156 25.21713,10.10213 25.65754,13.50212 26.02435,9.47999"
       id="path1432" />
    <path
       style="fill:#ff0000;stroke:#000000;stroke-width:0.75px;stroke-linecap:butt;stroke-linejoin:miter;stroke-opacity:0.0202429"
       d="m 195.09168,259.9716 -3.94475,-5.74892 -2.74242,7.40455 6.68717,-1.65563"
       id="path1440" />
    <path
       style="fill:none;stroke:#9c41fa;stroke-width:1.5;stroke-linecap:butt;stroke-linejoin:miter;stroke-miterlimit:4;stroke-dasharray:none;stroke-opacity:0.959514"
       d="m 246.77357,282.95371 14.88254,-26.23569 14.64654,-31.05072 14.33098,-27.13484 14.19067,-31.83813 13.66074,-21.23582 14.50358,-52.535326"
       id="path1442" />
    <path
       style="fill:#9641fa;fill-opacity:1;stroke:#000000;stroke-width:0.75px;stroke-linecap:butt;stroke-linejoin:miter;stroke-opacity:0"
       d="m 297.82721,182.09694 -7.67879,3.8394 9.59849,2.74242 z"
       id="path1446" />
    <path
       style="fill:none;stroke:#0000ff;stroke-width:1.5;stroke-linecap:butt;stroke-linejoin:miter;stroke-miterlimit:4;stroke-dasharray:none;stroke-opacity:1"
       d="m 233.43254,126.03323 23.88645,-14.36801 24.65574,-12.637792 25.33367,-8.353194 25.68022,2.248949"
       id="path1448" />
    <path
       style="fill:#0000ff;fill-opacity:1;stroke:#0000ff;stroke-width:0.75px;stroke-linecap:butt;stroke-linejoin:miter;stroke-opacity:0"
       d="m 272.59692,98.727258 7.1303,1.919702 -3.29091,5.48485 z"
       id="path1452" />
    <path
       style="fill:none;stroke:#000000;stroke-width:0.814894px;stroke-linecap:butt;stroke-linejoin:miter;stroke-opacity:1;marker-start:url(#Arrow1Lstart);marker-end:url(#Arrow2Lend)"
       d="m 275.50831,285.34134 64.47051,-67.5088"
       id="path1456"
       sodipodi:nodetypes="cc" />
    <text
       xml:space="preserve"
       style="font-style:normal;font-weight:normal;font-size:7.99184px;line-height:1.25;font-family:sans-serif;fill:#ff0000;fill-opacity:1;stroke:none;stroke-width:0.199796;stroke-linecap:butt;stroke-linejoin:round"
       x="172.21313"
       y="251.53911"
       id="text2186"
       transform="scale(1.023954,0.97660633)"><tspan
         sodipodi:role="line"
         id="tspan2184"
         x="172.21313"
         y="251.53911"
         style="fill:#ff0000;stroke-width:0.199796">a)</tspan></text>
    <text
       xml:space="preserve"
       style="font-style:normal;font-weight:normal;font-size:8.07179px;line-height:1.25;font-family:sans-serif;fill:#0000ff;fill-opacity:1;stroke:none;stroke-width:0.201795;stroke-linecap:butt;stroke-linejoin:round"
       x="241.40146"
       y="112.82715"
       id="text2186-9"
       transform="scale(1.0341982,0.96693269)"><tspan
         sodipodi:role="line"
         id="tspan2184-1"
         x="241.40146"
         y="112.82715"
         style="fill:#0000ff;stroke-width:0.201795">b)</tspan></text>
    <text
       xml:space="preserve"
       style="font-style:normal;font-weight:normal;font-size:8.3681px;line-height:1.25;font-family:sans-serif;fill:#9641fa;fill-opacity:1;stroke:none;stroke-width:0.209203;stroke-linecap:butt;stroke-linejoin:round"
       x="275.1539"
       y="215.64465"
       id="text2186-6"
       transform="scale(1.0721625,0.93269448)"><tspan
         sodipodi:role="line"
         id="tspan2184-0"
         x="275.1539"
         y="215.64465"
         style="fill:#9641fa;fill-opacity:1;stroke-width:0.209203">c)</tspan></text>
  </g>
  <defs
     id="defs1571">
    <clipPath
       id="p3ee5c8f805">
      <rect
         height="266.112"
         width="266.112"
         x="103.104"
         y="41.472"
         id="rect1568" />
    </clipPath>
  </defs>
</svg>
